<?xml version="1.0" encoding="UTF-8"?>
<!DOCTYPE svg PUBLIC "-//W3C//DTD SVG 1.1//EN" "http://www.w3.org/Graphics/SVG/1.1/DTD/svg11.dtd">
<svg xmlns="http://www.w3.org/2000/svg" version="1.1" width="200px" height="252px" style="shape-rendering:geometricPrecision; text-rendering:geometricPrecision; image-rendering:optimizeQuality; fill-rule:evenodd; clip-rule:evenodd" xmlns:xlink="http://www.w3.org/1999/xlink">
<g><path style="opacity:1" fill="#3c8a6b" d="M 101.5,1.5 C 109.27,9.77153 117.27,17.9382 125.5,26C 132.429,31.2911 139.762,35.7911 147.5,39.5C 142.984,39.1533 138.817,37.82 135,35.5C 131.571,37.37 129.404,36.37 128.5,32.5C 125.914,31.52 123.247,31.1866 120.5,31.5C 120.421,30.0695 120.754,28.7362 121.5,27.5C 120.68,25.8888 119.346,25.2222 117.5,25.5C 117.66,23.8008 117.494,22.1341 117,20.5C 113.818,16.319 109.984,12.819 105.5,10C 105.833,9.66667 106.167,9.33333 106.5,9C 103.8,7.14327 102.134,4.64327 101.5,1.5 Z"/></g>
<g><path style="opacity:1" fill="#278862" d="M 98.5,-0.5 C 99.1667,-0.5 99.8333,-0.5 100.5,-0.5C 100.833,0.166667 101.167,0.833333 101.5,1.5C 102.134,4.64327 103.8,7.14327 106.5,9C 106.167,9.33333 105.833,9.66667 105.5,10C 109.984,12.819 113.818,16.319 117,20.5C 117.494,22.1341 117.66,23.8008 117.5,25.5C 119.346,25.2222 120.68,25.8888 121.5,27.5C 120.754,28.7362 120.421,30.0695 120.5,31.5C 123.247,31.1866 125.914,31.52 128.5,32.5C 129.404,36.37 131.571,37.37 135,35.5C 138.817,37.82 142.984,39.1533 147.5,39.5C 147.047,40.4584 146.381,41.2917 145.5,42C 148.124,41.3502 150.791,41.5168 153.5,42.5C 153.64,44.1238 152.973,45.2904 151.5,46C 157.052,44.7653 162.385,45.432 167.5,48C 171.541,48.1735 175.541,48.6735 179.5,49.5C 178.82,51.8889 177.986,54.2222 177,56.5C 174.072,57.6074 171.572,59.2741 169.5,61.5C 169.39,59.6459 169.057,57.6459 168.5,55.5C 167.5,55 166.5,54.5 165.5,54C 159.714,53.7937 154.048,52.9603 148.5,51.5C 146.219,51.9227 144.552,51.256 143.5,49.5C 141.35,48.3299 139.016,47.3299 136.5,46.5C 135.738,45.3717 135.071,44.2051 134.5,43C 129.755,42.1165 125.421,40.4498 121.5,38C 121.047,35.3067 119.547,33.4734 117,32.5C 117.032,27.3636 114.532,24.8636 109.5,25C 109.05,21.4221 107.05,19.4221 103.5,19C 102.553,16.1185 100.553,14.9518 97.5,15.5C 96.1667,15.6667 94.8333,15.8333 93.5,16C 92.6711,20.0116 90.1711,23.1783 86,25.5C 83.7284,29.2807 81.2284,32.9473 78.5,36.5C 76.0922,38.6975 73.4255,40.3642 70.5,41.5C 71.087,40.2334 71.087,39.2334 70.5,38.5C 69.3974,40.1036 67.8974,41.1036 66,41.5C 63.3761,41.498 60.8761,40.998 58.5,40C 64.382,35.0415 70.7153,30.5415 77.5,26.5C 78.4287,25.3112 78.762,23.9778 78.5,22.5C 85.8747,15.3942 92.5414,7.72757 98.5,-0.5 Z"/></g>
<g><path style="opacity:1" fill="#48a346" d="M 118.5,37.5 C 124.545,41.5182 130.878,45.1848 137.5,48.5C 137.5,49.8333 137.5,51.1667 137.5,52.5C 138.5,52.5 139.5,52.5 140.5,52.5C 140.64,54.1238 139.973,55.2904 138.5,56C 139.905,57.2692 141.571,57.7692 143.5,57.5C 143.5,59.8333 143.5,62.1667 143.5,64.5C 143.083,65.1239 142.416,65.4573 141.5,65.5C 139.675,64.3489 137.675,63.6822 135.5,63.5C 135.5,63.1667 135.5,62.8333 135.5,62.5C 137.527,62.6621 139.527,62.4955 141.5,62C 139.297,59.1143 136.963,56.2809 134.5,53.5C 133.914,53.7093 133.414,54.0426 133,54.5C 131.027,52.7721 129.194,50.9387 127.5,49C 124.883,48.1785 122.216,47.6785 119.5,47.5C 119.5,46.5 119.5,45.5 119.5,44.5C 113.758,43.1014 107.925,42.1014 102,41.5C 98.3699,42.3733 95.8699,44.3733 94.5,47.5C 94.5172,45.4352 94.8505,43.4352 95.5,41.5C 102.581,36.1991 110.248,34.8658 118.5,37.5 Z"/></g>
<g><path style="opacity:1" fill="#218750" d="M 143.5,49.5 C 141.435,49.4828 139.435,49.1495 137.5,48.5C 130.878,45.1848 124.545,41.5182 118.5,37.5C 116.319,34.3416 113.986,31.1749 111.5,28C 108.469,26.1407 105.803,23.8074 103.5,21C 102.127,20.1251 100.627,19.6251 99,19.5C 96.8142,21.6202 94.3142,23.4535 91.5,25C 85.6163,30.7157 79.9496,36.549 74.5,42.5C 70.9874,44.4215 67.3208,46.0882 63.5,47.5C 63.33,46.1779 63.6634,45.0113 64.5,44C 66.7226,43.4338 68.7226,42.6005 70.5,41.5C 73.4255,40.3642 76.0922,38.6975 78.5,36.5C 81.2284,32.9473 83.7284,29.2807 86,25.5C 90.1711,23.1783 92.6711,20.0116 93.5,16C 94.8333,15.8333 96.1667,15.6667 97.5,15.5C 100.553,14.9518 102.553,16.1185 103.5,19C 107.05,19.4221 109.05,21.4221 109.5,25C 114.532,24.8636 117.032,27.3636 117,32.5C 119.547,33.4734 121.047,35.3067 121.5,38C 125.421,40.4498 129.755,42.1165 134.5,43C 135.071,44.2051 135.738,45.3717 136.5,46.5C 139.016,47.3299 141.35,48.3299 143.5,49.5 Z"/></g>
<g><path style="opacity:1" fill="#209746" d="M 118.5,37.5 C 110.248,34.8658 102.581,36.1991 95.5,41.5C 96.059,38.1566 97.3923,35.1566 99.5,32.5C 99.1667,32.1667 98.8333,31.8333 98.5,31.5C 97.4793,32.9014 96.4793,34.2347 95.5,35.5C 95.7895,31.446 95.1229,30.946 93.5,34C 90.5,34.3333 87.5,34.6667 84.5,35C 81.286,37.7614 77.9527,40.2614 74.5,42.5C 79.9496,36.549 85.6163,30.7157 91.5,25C 94.3142,23.4535 96.8142,21.6202 99,19.5C 100.627,19.6251 102.127,20.1251 103.5,21C 105.803,23.8074 108.469,26.1407 111.5,28C 113.986,31.1749 116.319,34.3416 118.5,37.5 Z"/></g>
<g><path style="opacity:1" fill="#46a246" d="M 95.5,35.5 C 94.7063,38.802 94.0396,42.1353 93.5,45.5C 91.772,44.621 89.9386,43.9543 88,43.5C 84.8486,44.0931 81.682,44.5931 78.5,45C 76.4356,47.5751 73.9356,48.0751 71,46.5C 69.3333,49.5 67,51.8333 64,53.5C 63.8485,56.1193 63.0152,58.4527 61.5,60.5C 64.7683,61.487 68.1016,61.8204 71.5,61.5C 71.5,61.8333 71.5,62.1667 71.5,62.5C 68.6146,62.1936 65.9479,62.5269 63.5,63.5C 61.2433,63.9617 59.2433,64.9617 57.5,66.5C 56.8165,66.1373 56.1499,65.8039 55.5,65.5C 55.8708,60.5788 57.5375,56.0788 60.5,52C 59.552,51.5172 58.552,51.3505 57.5,51.5C 57.5,51.1667 57.5,50.8333 57.5,50.5C 59.5,49.5 61.5,48.5 63.5,47.5C 67.3208,46.0882 70.9874,44.4215 74.5,42.5C 77.9527,40.2614 81.286,37.7614 84.5,35C 87.5,34.6667 90.5,34.3333 93.5,34C 95.1229,30.946 95.7895,31.446 95.5,35.5 Z"/></g>
<g><path style="opacity:1" fill="#75b445" d="M 119.5,61.5 C 120.598,60.603 120.598,59.7697 119.5,59C 115.801,58.4466 112.801,56.7799 110.5,54C 105.511,53.5007 100.511,53.3341 95.5,53.5C 95.6741,51.139 96.0074,48.8056 96.5,46.5C 103.494,46.9996 110.494,47.4996 117.5,48C 123.298,50.8871 128.298,54.7204 132.5,59.5C 128.313,61.0652 123.98,61.7319 119.5,61.5 Z"/></g>
<g><path style="opacity:1" fill="#2d8863" d="M 78.5,22.5 C 78.762,23.9778 78.4287,25.3112 77.5,26.5C 70.7153,30.5415 64.382,35.0415 58.5,40C 60.8761,40.998 63.3761,41.498 66,41.5C 67.8974,41.1036 69.3974,40.1036 70.5,38.5C 71.087,39.2334 71.087,40.2334 70.5,41.5C 68.7226,42.6005 66.7226,43.4338 64.5,44C 63.6634,45.0113 63.33,46.1779 63.5,47.5C 61.5,48.5 59.5,49.5 57.5,50.5C 51.3952,51.9184 45.3952,53.585 39.5,55.5C 36.8333,55.5 34.1667,55.5 31.5,55.5C 31.3409,62.874 33.3409,69.5407 37.5,75.5C 37.9577,82.0906 39.4577,88.4239 42,94.5C 42.4994,100.157 42.6661,105.824 42.5,111.5C 42.1763,115.473 41.0096,119.14 39,122.5C 37.9847,126.44 37.4847,130.44 37.5,134.5C 34.1667,134.5 30.8333,134.5 27.5,134.5C 37.6928,104.376 34.0261,76.0425 16.5,49.5C 40.1607,46.9945 60.8273,37.9945 78.5,22.5 Z"/></g>
<g><path style="opacity:1" fill="#5daa45" d="M 93.5,45.5 C 93.5,49.5 93.5,53.5 93.5,57.5C 92.6829,55.0314 92.1829,52.3647 92,49.5C 90.6054,48.1854 89.6054,48.5188 89,50.5C 81.1721,50.6993 74.3388,53.6993 68.5,59.5C 69.6016,60.1757 70.6016,60.8423 71.5,61.5C 68.1016,61.8204 64.7683,61.487 61.5,60.5C 63.0152,58.4527 63.8485,56.1193 64,53.5C 67,51.8333 69.3333,49.5 71,46.5C 73.9356,48.0751 76.4356,47.5751 78.5,45C 81.682,44.5931 84.8486,44.0931 88,43.5C 89.9386,43.9543 91.772,44.621 93.5,45.5 Z"/></g>
<g><path style="opacity:1" fill="#61ac48" d="M 135.5,62.5 C 130.167,62.5 124.833,62.5 119.5,62.5C 119.5,62.1667 119.5,61.8333 119.5,61.5C 123.98,61.7319 128.313,61.0652 132.5,59.5C 128.298,54.7204 123.298,50.8871 117.5,48C 110.494,47.4996 103.494,46.9996 96.5,46.5C 96.0074,48.8056 95.6741,51.139 95.5,53.5C 95.5,55.8333 95.5,58.1667 95.5,60.5C 94.5151,56.3656 94.1818,52.0323 94.5,47.5C 95.8699,44.3733 98.3699,42.3733 102,41.5C 107.925,42.1014 113.758,43.1014 119.5,44.5C 119.5,45.5 119.5,46.5 119.5,47.5C 122.216,47.6785 124.883,48.1785 127.5,49C 129.194,50.9387 131.027,52.7721 133,54.5C 133.414,54.0426 133.914,53.7093 134.5,53.5C 136.963,56.2809 139.297,59.1143 141.5,62C 139.527,62.4955 137.527,62.6621 135.5,62.5 Z"/></g>
<g><path style="opacity:1" fill="#138d48" d="M 57.5,50.5 C 57.5,50.8333 57.5,51.1667 57.5,51.5C 50.6702,54.3263 43.6702,56.6596 36.5,58.5C 36.2907,59.086 35.9574,59.586 35.5,60C 37.3356,64.2436 38.669,68.7436 39.5,73.5C 36.5575,70.2299 35.2242,66.2299 35.5,61.5C 34.5,61.5 33.5,61.5 32.5,61.5C 32.5,59.8333 32.5,58.1667 32.5,56.5C 35.0593,56.8016 37.3926,56.4682 39.5,55.5C 45.3952,53.585 51.3952,51.9184 57.5,50.5 Z"/></g>
<g><path style="opacity:1" fill="#85bd48" d="M 93.5,57.5 C 93.5,59.1667 93.5,60.8333 93.5,62.5C 86.1667,62.5 78.8333,62.5 71.5,62.5C 71.5,62.1667 71.5,61.8333 71.5,61.5C 70.6016,60.8423 69.6016,60.1757 68.5,59.5C 74.3388,53.6993 81.1721,50.6993 89,50.5C 89.6054,48.5188 90.6054,48.1854 92,49.5C 92.1829,52.3647 92.6829,55.0314 93.5,57.5 Z"/></g>
<g><path style="opacity:1" fill="#9cc94a" d="M 95.5,53.5 C 100.511,53.3341 105.511,53.5007 110.5,54C 112.801,56.7799 115.801,58.4466 119.5,59C 120.598,59.7697 120.598,60.603 119.5,61.5C 119.5,61.8333 119.5,62.1667 119.5,62.5C 111.097,63.1335 103.097,62.4668 95.5,60.5C 95.5,58.1667 95.5,55.8333 95.5,53.5 Z"/></g>
<g><path style="opacity:1" fill="#39832e" d="M 95.5,41.5 C 94.8505,43.4352 94.5172,45.4352 94.5,47.5C 94.1818,52.0323 94.5151,56.3656 95.5,60.5C 103.097,62.4668 111.097,63.1335 119.5,62.5C 124.833,62.5 130.167,62.5 135.5,62.5C 135.5,62.8333 135.5,63.1667 135.5,63.5C 121.5,63.5 107.5,63.5 93.5,63.5C 83.5,63.5 73.5,63.5 63.5,63.5C 65.9479,62.5269 68.6146,62.1936 71.5,62.5C 78.8333,62.5 86.1667,62.5 93.5,62.5C 93.5,60.8333 93.5,59.1667 93.5,57.5C 93.5,53.5 93.5,49.5 93.5,45.5C 94.0396,42.1353 94.7063,38.802 95.5,35.5C 96.4793,34.2347 97.4793,32.9014 98.5,31.5C 98.8333,31.8333 99.1667,32.1667 99.5,32.5C 97.3923,35.1566 96.059,38.1566 95.5,41.5 Z"/></g>
<g><path style="opacity:1" fill="#279847" d="M 137.5,48.5 C 139.435,49.1495 141.435,49.4828 143.5,49.5C 144.552,51.256 146.219,51.9227 148.5,51.5C 149.749,53.1361 151.416,54.3028 153.5,55C 157.167,55.3333 160.833,55.6667 164.5,56C 165.081,56.8926 165.415,57.8926 165.5,59C 161.661,68.3527 158.327,77.8527 155.5,87.5C 156.198,81.4426 155.198,75.7759 152.5,70.5C 150.208,67.6466 147.542,66.9799 144.5,68.5C 144.167,68.5 143.833,68.5 143.5,68.5C 143.167,68.5 142.833,68.5 142.5,68.5C 145.066,66.5605 148.066,65.0605 151.5,64C 148.843,63.8253 146.176,63.9919 143.5,64.5C 143.5,62.1667 143.5,59.8333 143.5,57.5C 141.571,57.7692 139.905,57.2692 138.5,56C 139.973,55.2904 140.64,54.1238 140.5,52.5C 139.5,52.5 138.5,52.5 137.5,52.5C 137.5,51.1667 137.5,49.8333 137.5,48.5 Z"/></g>
<g><path style="opacity:1" fill="#d8c739" d="M 106.5,69.5 C 115.306,66.9409 124.306,65.7742 133.5,66C 134.337,67.0113 134.67,68.1779 134.5,69.5C 133.039,68.3143 131.705,68.3143 130.5,69.5C 125.821,69.3342 121.155,69.5008 116.5,70C 115.263,70.2321 114.263,70.7321 113.5,71.5C 111.833,71.5 110.167,71.5 108.5,71.5C 104.709,72.0029 101.709,73.6696 99.5,76.5C 99.1667,76.5 98.8333,76.5 98.5,76.5C 95.2792,74.2016 91.6125,72.8683 87.5,72.5C 85.0521,71.5269 82.3854,71.1936 79.5,71.5C 76.0381,70.5184 72.3714,70.185 68.5,70.5C 68.5,84.1667 68.5,97.8333 68.5,111.5C 67.5043,98.0102 67.171,84.3435 67.5,70.5C 66.5,70.5 65.5,70.5 64.5,70.5C 64.5,70.1667 64.5,69.8333 64.5,69.5C 65.4345,68.4324 65.7678,67.099 65.5,65.5C 73.5452,65.8389 81.5452,66.6722 89.5,68C 93.7193,68.7913 97.3859,70.6246 100.5,73.5C 102.565,72.1433 104.565,70.81 106.5,69.5 Z"/></g>
<g><path style="opacity:1" fill="#25885d" d="M 148.5,51.5 C 154.048,52.9603 159.714,53.7937 165.5,54C 166.5,54.5 167.5,55 168.5,55.5C 169.057,57.6459 169.39,59.6459 169.5,61.5C 167.357,65.3208 167.023,69.3208 168.5,73.5C 167.249,74.6311 166.249,75.9644 165.5,77.5C 165.941,79.1447 166.274,80.8114 166.5,82.5C 163.831,95.8463 164.164,109.18 167.5,122.5C 167.379,123.894 167.046,125.228 166.5,126.5C 167.325,127.386 168.325,127.719 169.5,127.5C 169.674,129.861 170.007,132.194 170.5,134.5C 168.143,134.663 165.81,134.497 163.5,134C 162.333,133.5 161.5,132.667 161,131.5C 159.92,124.677 158.253,118.011 156,111.5C 155.5,105.175 155.334,98.8421 155.5,92.5C 155.5,90.8333 155.5,89.1667 155.5,87.5C 158.327,77.8527 161.661,68.3527 165.5,59C 165.415,57.8926 165.081,56.8926 164.5,56C 160.833,55.6667 157.167,55.3333 153.5,55C 151.416,54.3028 149.749,53.1361 148.5,51.5 Z"/></g>
<g><path style="opacity:1" fill="#086733" d="M 58.5,122.5 C 57.8902,121.609 57.5569,120.609 57.5,119.5C 57.3334,103.497 57.5001,87.4965 58,71.5C 58.6667,70.1667 59.3333,70.1667 60,71.5C 60.1667,80 60.3333,88.5 60.5,97C 60.4981,105.861 59.8314,114.361 58.5,122.5 Z"/></g>
<g><path style="opacity:1" fill="#3a8868" d="M 147.5,39.5 C 158.956,43.3902 170.623,46.3902 182.5,48.5C 171.692,66.7447 166.526,86.4114 167,107.5C 168.7,116.631 170.866,125.631 173.5,134.5C 172.5,134.5 171.5,134.5 170.5,134.5C 170.007,132.194 169.674,129.861 169.5,127.5C 168.325,127.719 167.325,127.386 166.5,126.5C 167.046,125.228 167.379,123.894 167.5,122.5C 164.164,109.18 163.831,95.8463 166.5,82.5C 166.274,80.8114 165.941,79.1447 165.5,77.5C 166.249,75.9644 167.249,74.6311 168.5,73.5C 167.023,69.3208 167.357,65.3208 169.5,61.5C 171.572,59.2741 174.072,57.6074 177,56.5C 177.986,54.2222 178.82,51.8889 179.5,49.5C 175.541,48.6735 171.541,48.1735 167.5,48C 162.385,45.432 157.052,44.7653 151.5,46C 152.973,45.2904 153.64,44.1238 153.5,42.5C 150.791,41.5168 148.124,41.3502 145.5,42C 146.381,41.2917 147.047,40.4584 147.5,39.5 Z"/></g>
<g><path style="opacity:1" fill="#12672f" d="M 93.5,63.5 C 107.5,63.5 121.5,63.5 135.5,63.5C 137.675,63.6822 139.675,64.3489 141.5,65.5C 142.416,65.4573 143.083,65.1239 143.5,64.5C 146.176,63.9919 148.843,63.8253 151.5,64C 148.066,65.0605 145.066,66.5605 142.5,68.5C 142.833,83.5148 142.499,98.5148 141.5,113.5C 140.703,98.6643 139.703,83.9976 138.5,69.5C 137.167,69.5 135.833,69.5 134.5,69.5C 134.67,68.1779 134.337,67.0113 133.5,66C 124.306,65.7742 115.306,66.9409 106.5,69.5C 105.07,69.4208 103.736,69.7542 102.5,70.5C 101.407,68.2303 99.9066,67.897 98,69.5C 93.7035,67.4814 89.2035,66.1481 84.5,65.5C 87.6417,64.8326 90.6417,64.166 93.5,63.5 Z"/></g>
<g><path style="opacity:1" fill="#4da646" d="M 51.5,67.5 C 53.1667,67.5 54.8333,67.5 56.5,67.5C 56.5,68.8333 56.5,70.1667 56.5,71.5C 55.4138,71.62 54.7472,72.2867 54.5,73.5C 55.5284,75.5599 55.5284,77.5599 54.5,79.5C 53.5713,78.3112 53.238,76.9778 53.5,75.5C 52.5,75.5 51.5,75.5 50.5,75.5C 48.8861,88.5828 49.2195,101.583 51.5,114.5C 50.0695,114.421 48.7362,114.754 47.5,115.5C 46.7189,114.271 46.2189,112.938 46,111.5C 45.71,99.1121 44.8767,86.7788 43.5,74.5C 44.5,74.5 45.5,74.5 46.5,74.5C 46.8333,72.5 47.1667,70.5 47.5,68.5C 48.9587,68.5674 50.2921,68.2341 51.5,67.5 Z"/></g>
<g><path style="opacity:1" fill="#62ac48" d="M 56.5,71.5 C 56.5,87.5 56.5,103.5 56.5,119.5C 56.317,121.936 56.9837,124.103 58.5,126C 57.0267,126.71 56.3601,127.876 56.5,129.5C 52.8767,129.351 52.5434,128.184 55.5,126C 53.1737,122.536 51.8404,118.703 51.5,114.5C 49.2195,101.583 48.8861,88.5828 50.5,75.5C 51.5,75.5 52.5,75.5 53.5,75.5C 53.238,76.9778 53.5713,78.3112 54.5,79.5C 55.5284,77.5599 55.5284,75.5599 54.5,73.5C 54.7472,72.2867 55.4138,71.62 56.5,71.5 Z"/></g>
<g><path style="opacity:1" fill="#5dab47" d="M 143.5,68.5 C 143.833,68.5 144.167,68.5 144.5,68.5C 146.722,68.178 148.556,68.8446 150,70.5C 153.894,83.9472 154.56,97.6139 152,111.5C 150.603,116.351 148.436,120.851 145.5,125C 147.056,127.501 146.389,129.001 143.5,129.5C 142.315,128.143 141.315,126.643 140.5,125C 141.196,123.107 142.03,121.274 143,119.5C 143.5,102.503 143.667,85.5033 143.5,68.5 Z"/></g>
<g><path style="opacity:1" fill="#238853" d="M 39.5,55.5 C 37.3926,56.4682 35.0593,56.8016 32.5,56.5C 32.5,58.1667 32.5,59.8333 32.5,61.5C 33.5,61.5 34.5,61.5 35.5,61.5C 35.2242,66.2299 36.5575,70.2299 39.5,73.5C 41.9889,80.6121 43.3222,87.9454 43.5,95.5C 43.8214,101.026 43.4881,106.36 42.5,111.5C 42.6661,105.824 42.4994,100.157 42,94.5C 39.4577,88.4239 37.9577,82.0906 37.5,75.5C 33.3409,69.5407 31.3409,62.874 31.5,55.5C 34.1667,55.5 36.8333,55.5 39.5,55.5 Z"/></g>
<g><path style="opacity:1" fill="#186928" d="M 63.5,63.5 C 73.5,63.5 83.5,63.5 93.5,63.5C 90.6417,64.166 87.6417,64.8326 84.5,65.5C 89.2035,66.1481 93.7035,67.4814 98,69.5C 99.9066,67.897 101.407,68.2303 102.5,70.5C 103.736,69.7542 105.07,69.4208 106.5,69.5C 104.565,70.81 102.565,72.1433 100.5,73.5C 97.3859,70.6246 93.7193,68.7913 89.5,68C 81.5452,66.6722 73.5452,65.8389 65.5,65.5C 65.7678,67.099 65.4345,68.4324 64.5,69.5C 63.5,69.5 62.5,69.5 61.5,69.5C 61.5,86.5 61.5,103.5 61.5,120.5C 87.3388,120.831 113.005,120.498 138.5,119.5C 138.5,102.833 138.5,86.1667 138.5,69.5C 139.703,83.9976 140.703,98.6643 141.5,113.5C 142.499,98.5148 142.833,83.5148 142.5,68.5C 142.833,68.5 143.167,68.5 143.5,68.5C 143.667,85.5033 143.5,102.503 143,119.5C 142.03,121.274 141.196,123.107 140.5,125C 141.315,126.643 142.315,128.143 143.5,129.5C 143.833,130.5 144.5,131.167 145.5,131.5C 146.806,133.816 148.139,136.15 149.5,138.5C 149.167,138.833 148.833,139.167 148.5,139.5C 145.479,135.432 142.479,131.432 139.5,127.5C 138.039,126.314 136.705,126.314 135.5,127.5C 129.085,127.562 123.085,128.895 117.5,131.5C 120.09,132.128 122.423,133.295 124.5,135C 123.833,135.333 123.167,135.667 122.5,136C 107.167,136.667 91.8333,136.667 76.5,136C 75.2888,135.107 75.2888,134.274 76.5,133.5C 78.5405,132.764 80.5405,131.931 82.5,131C 76.9226,129.305 71.2559,128.138 65.5,127.5C 65.1034,126.475 64.4368,126.308 63.5,127C 61.6266,128.704 59.9599,130.537 58.5,132.5C 57.0665,133.833 55.7332,135.333 54.5,137C 53.6683,137.688 53.0016,137.521 52.5,136.5C 55.4715,133.192 58.4715,129.859 61.5,126.5C 60.4756,125.148 59.4756,123.815 58.5,122.5C 59.8314,114.361 60.4981,105.861 60.5,97C 60.3333,88.5 60.1667,80 60,71.5C 59.3333,70.1667 58.6667,70.1667 58,71.5C 57.5001,87.4965 57.3334,103.497 57.5,119.5C 57.1667,119.5 56.8333,119.5 56.5,119.5C 56.5,103.5 56.5,87.5 56.5,71.5C 56.5,70.1667 56.5,68.8333 56.5,67.5C 54.8333,67.5 53.1667,67.5 51.5,67.5C 50.3915,66.71 49.0581,66.21 47.5,66C 50.146,65.5026 52.8127,65.3359 55.5,65.5C 56.1499,65.8039 56.8165,66.1373 57.5,66.5C 59.2433,64.9617 61.2433,63.9617 63.5,63.5 Z"/></g>
<g><path style="opacity:1" fill="#d4cd3d" d="M 134.5,69.5 C 135.833,69.5 137.167,69.5 138.5,69.5C 138.5,86.1667 138.5,102.833 138.5,119.5C 112.995,119.831 87.6612,119.498 62.5,118.5C 73.5,118.5 84.5,118.5 95.5,118.5C 100.167,118.5 104.833,118.5 109.5,118.5C 118.5,118.5 127.5,118.5 136.5,118.5C 137.129,101.927 136.462,85.594 134.5,69.5 Z"/></g>
<g><path style="opacity:1" fill="#fefbe4" d="M 97.5,97.5 C 97.8333,97.5 98.1667,97.5 98.5,97.5C 98.5,103.5 98.5,109.5 98.5,115.5C 97.5,115.5 96.5,115.5 95.5,115.5C 93.1016,115.741 91.1016,115.074 89.5,113.5C 83.2162,112.145 76.8829,111.145 70.5,110.5C 75.8437,110.334 81.1771,110.501 86.5,111C 90.6712,111.117 94.3379,112.283 97.5,114.5C 97.5,108.833 97.5,103.167 97.5,97.5 Z"/></g>
<g><path style="opacity:1" fill="#e5c633" d="M 108.5,71.5 C 108.167,72.1667 107.833,72.8333 107.5,73.5C 105.847,73.6596 104.514,74.3263 103.5,75.5C 102.504,88.9898 102.171,102.656 102.5,116.5C 103.791,116.737 104.791,116.404 105.5,115.5C 113.384,111.966 121.717,110.632 130.5,111.5C 124.24,112.271 117.906,113.438 111.5,115C 110.027,115.71 109.36,116.876 109.5,118.5C 104.833,118.5 100.167,118.5 95.5,118.5C 95.5,117.833 95.5,117.167 95.5,116.5C 96.8333,116.5 98.1667,116.5 99.5,116.5C 99.5,103.167 99.5,89.8333 99.5,76.5C 101.709,73.6696 104.709,72.0029 108.5,71.5 Z"/></g>
<g><path style="opacity:1" fill="#f4e79b" d="M 98.5,76.5 C 98.8333,76.5 99.1667,76.5 99.5,76.5C 99.5,89.8333 99.5,103.167 99.5,116.5C 98.1667,116.5 96.8333,116.5 95.5,116.5C 95.5,116.167 95.5,115.833 95.5,115.5C 96.5,115.5 97.5,115.5 98.5,115.5C 98.5,109.5 98.5,103.5 98.5,97.5C 98.5,96.5 98.5,95.5 98.5,94.5C 98.5,88.5 98.5,82.5 98.5,76.5 Z"/></g>
<g><path style="opacity:1" fill="#ebc91d" d="M 64.5,70.5 C 65.5,70.5 66.5,70.5 67.5,70.5C 67.171,84.3435 67.5043,98.0102 68.5,111.5C 68.8333,111.5 69.1667,111.5 69.5,111.5C 75.9793,112.598 82.6459,113.265 89.5,113.5C 91.1016,115.074 93.1016,115.741 95.5,115.5C 95.5,115.833 95.5,116.167 95.5,116.5C 95.5,117.167 95.5,117.833 95.5,118.5C 84.5,118.5 73.5,118.5 62.5,118.5C 61.8486,102.132 62.5152,86.1317 64.5,70.5 Z"/></g>
<g><path style="opacity:1" fill="#fefddc" d="M 107.5,73.5 C 107.092,74.6431 106.425,75.6431 105.5,76.5C 104.501,88.4815 104.168,100.482 104.5,112.5C 113.084,111.001 121.75,110.334 130.5,110.5C 130.5,110.833 130.5,111.167 130.5,111.5C 121.717,110.632 113.384,111.966 105.5,115.5C 103.519,102.542 102.852,89.2086 103.5,75.5C 104.514,74.3263 105.847,73.6596 107.5,73.5 Z"/></g>
<g><path style="opacity:1" fill="#95ab32" d="M 64.5,69.5 C 64.5,69.8333 64.5,70.1667 64.5,70.5C 62.5152,86.1317 61.8486,102.132 62.5,118.5C 87.6612,119.498 112.995,119.831 138.5,119.5C 113.005,120.498 87.3388,120.831 61.5,120.5C 61.5,103.5 61.5,86.5 61.5,69.5C 62.5,69.5 63.5,69.5 64.5,69.5 Z"/></g>
<g><path style="opacity:1" fill="#fcfbfb" d="M 89.5,97.5 C 90.9245,99.0311 91.5912,98.6977 91.5,96.5C 92.3522,97.4848 93.6855,97.4848 95.5,96.5C 95.8417,97.3382 96.5084,97.6716 97.5,97.5C 97.5,103.167 97.5,108.833 97.5,114.5C 94.3379,112.283 90.6712,111.117 86.5,111C 81.1771,110.501 75.8437,110.334 70.5,110.5C 70.5,106.167 70.5,101.833 70.5,97.5C 73.9521,97.1803 77.2855,97.1803 80.5,97.5C 81.7701,96.4378 82.9367,95.4378 84,94.5C 84.3589,97.5443 85.0255,97.8776 86,95.5C 86.7096,96.9733 87.8762,97.6399 89.5,97.5 Z"/></g>
<g><path style="opacity:1" fill="#747474" d="M 82.5,92.5 C 84.5342,94.2463 86.7009,94.5796 89,93.5C 89.49,94.7932 89.6567,96.1266 89.5,97.5C 87.8762,97.6399 86.7096,96.9733 86,95.5C 85.0255,97.8776 84.3589,97.5443 84,94.5C 82.9367,95.4378 81.7701,96.4378 80.5,97.5C 77.2855,97.1803 73.9521,97.1803 70.5,97.5C 70.5,96.1667 70.5,94.8333 70.5,93.5C 72.3299,97.6078 73.3299,97.2745 73.5,92.5C 76.5983,92.4125 76.9316,92.9125 74.5,94C 74.9302,94.9195 75.2635,95.7528 75.5,96.5C 76.7193,95.7366 77.7193,94.7366 78.5,93.5C 79.1924,94.0253 79.6924,94.6919 80,95.5C 80.3768,94.0577 81.2101,93.0577 82.5,92.5 Z"/></g>
<g><path style="opacity:1" fill="#f5e77e" d="M 79.5,71.5 C 76.1667,71.5 72.8333,71.5 69.5,71.5C 69.5,84.8333 69.5,98.1667 69.5,111.5C 69.1667,111.5 68.8333,111.5 68.5,111.5C 68.5,97.8333 68.5,84.1667 68.5,70.5C 72.3714,70.185 76.0381,70.5184 79.5,71.5 Z"/></g>
<g><path style="opacity:1" fill="#fef7ab" d="M 103.5,75.5 C 102.852,89.2086 103.519,102.542 105.5,115.5C 104.791,116.404 103.791,116.737 102.5,116.5C 102.171,102.656 102.504,88.9898 103.5,75.5 Z"/></g>
<g><path style="opacity:1" fill="#ebc718" d="M 130.5,69.5 C 131.705,68.3143 133.039,68.3143 134.5,69.5C 136.462,85.594 137.129,101.927 136.5,118.5C 127.5,118.5 118.5,118.5 109.5,118.5C 109.36,116.876 110.027,115.71 111.5,115C 117.906,113.438 124.24,112.271 130.5,111.5C 131.833,97.5 131.833,83.5 130.5,69.5 Z"/></g>
<g><path style="opacity:1" fill="#c5c4c3" d="M 88.5,86.5 C 88.3433,87.8734 88.51,89.2068 89,90.5C 89.2784,89.5842 89.7784,88.9175 90.5,88.5C 91.2216,88.0825 91.7216,87.4158 92,86.5C 92.4955,88.4727 92.6621,90.4727 92.5,92.5C 94.8863,92.2587 96.8863,92.9254 98.5,94.5C 98.5,95.5 98.5,96.5 98.5,97.5C 98.1667,97.5 97.8333,97.5 97.5,97.5C 96.5084,97.6716 95.8417,97.3382 95.5,96.5C 95.5,95.5 95.5,94.5 95.5,93.5C 93.8333,93.5 92.1667,93.5 90.5,93.5C 90.2627,94.791 90.596,95.791 91.5,96.5C 91.5912,98.6977 90.9245,99.0311 89.5,97.5C 89.6567,96.1266 89.49,94.7932 89,93.5C 86.7009,94.5796 84.5342,94.2463 82.5,92.5C 82.6602,90.8008 82.4935,89.1341 82,87.5C 81.4508,91.6174 79.7841,92.2841 77,89.5C 76.5774,90.9561 75.7441,91.4561 74.5,91C 75.0897,89.4905 75.7564,87.9905 76.5,86.5C 77.086,86.7093 77.586,87.0426 78,87.5C 79.6879,83.9738 81.8546,83.6405 84.5,86.5C 85.2508,87.376 85.7508,88.376 86,89.5C 86.2355,87.8807 87.0689,86.8807 88.5,86.5 Z"/></g>
<g><path style="opacity:1" fill="#7e7e7e" d="M 95.5,96.5 C 93.6855,97.4848 92.3522,97.4848 91.5,96.5C 90.596,95.791 90.2627,94.791 90.5,93.5C 92.1667,93.5 93.8333,93.5 95.5,93.5C 95.5,94.5 95.5,95.5 95.5,96.5 Z"/></g>
<g><path style="opacity:1" fill="#faecab" d="M 130.5,69.5 C 131.833,83.5 131.833,97.5 130.5,111.5C 130.5,111.167 130.5,110.833 130.5,110.5C 130.5,97.1667 130.5,83.8333 130.5,70.5C 124.797,70.3748 119.13,70.7081 113.5,71.5C 114.263,70.7321 115.263,70.2321 116.5,70C 121.155,69.5008 125.821,69.3342 130.5,69.5 Z"/></g>
<g><path style="opacity:1" fill="#fafaf6" d="M 87.5,72.5 C 91.6125,72.8683 95.2792,74.2016 98.5,76.5C 98.5,82.5 98.5,88.5 98.5,94.5C 96.8863,92.9254 94.8863,92.2587 92.5,92.5C 92.6621,90.4727 92.4955,88.4727 92,86.5C 91.7216,87.4158 91.2216,88.0825 90.5,88.5C 90.1667,87.5 89.5,86.8333 88.5,86.5C 87.0689,86.8807 86.2355,87.8807 86,89.5C 85.7508,88.376 85.2508,87.376 84.5,86.5C 81.8546,83.6405 79.6879,83.9738 78,87.5C 77.586,87.0426 77.086,86.7093 76.5,86.5C 75.7564,87.9905 75.0897,89.4905 74.5,91C 75.7441,91.4561 76.5774,90.9561 77,89.5C 79.7841,92.2841 81.4508,91.6174 82,87.5C 82.4935,89.1341 82.6602,90.8008 82.5,92.5C 81.2101,93.0577 80.3768,94.0577 80,95.5C 79.6924,94.6919 79.1924,94.0253 78.5,93.5C 77.7193,94.7366 76.7193,95.7366 75.5,96.5C 75.2635,95.7528 74.9302,94.9195 74.5,94C 76.9316,92.9125 76.5983,92.4125 73.5,92.5C 73.3299,97.2745 72.3299,97.6078 70.5,93.5C 70.5,86.5 70.5,79.5 70.5,72.5C 76.1667,72.5 81.8333,72.5 87.5,72.5 Z"/></g>
<g><path style="opacity:1" fill="#333333" d="M 88.5,86.5 C 89.5,86.8333 90.1667,87.5 90.5,88.5C 89.7784,88.9175 89.2784,89.5842 89,90.5C 88.51,89.2068 88.3433,87.8734 88.5,86.5 Z"/></g>
<g><path style="opacity:1" fill="#fef7ca" d="M 79.5,71.5 C 82.3854,71.1936 85.0521,71.5269 87.5,72.5C 81.8333,72.5 76.1667,72.5 70.5,72.5C 70.5,79.5 70.5,86.5 70.5,93.5C 70.5,94.8333 70.5,96.1667 70.5,97.5C 70.5,101.833 70.5,106.167 70.5,110.5C 76.8829,111.145 83.2162,112.145 89.5,113.5C 82.6459,113.265 75.9793,112.598 69.5,111.5C 69.5,98.1667 69.5,84.8333 69.5,71.5C 72.8333,71.5 76.1667,71.5 79.5,71.5 Z"/></g>
<g><path style="opacity:1" fill="#fafaf8" d="M 130.5,110.5 C 121.75,110.334 113.084,111.001 104.5,112.5C 104.168,100.482 104.501,88.4815 105.5,76.5C 106.425,75.6431 107.092,74.6431 107.5,73.5C 107.833,72.8333 108.167,72.1667 108.5,71.5C 110.167,71.5 111.833,71.5 113.5,71.5C 119.13,70.7081 124.797,70.3748 130.5,70.5C 130.5,83.8333 130.5,97.1667 130.5,110.5 Z"/></g>
<g><path style="opacity:1" fill="#888887" d="M 116.5,92.5 C 117.458,92.9528 118.292,93.6195 119,94.5C 119.333,94.1667 119.667,93.8333 120,93.5C 120.318,95.0609 121.151,96.2276 122.5,97C 120.141,97.2078 117.974,97.3744 116,97.5C 115.616,95.8034 115.782,94.1368 116.5,92.5 Z"/></g>
<g><path style="opacity:1" fill="#a2a3a2" d="M 112.5,92.5 C 113.613,93.9464 113.78,95.6131 113,97.5C 111.374,97.1459 109.541,97.1459 107.5,97.5C 107.5,96.1667 107.5,94.8333 107.5,93.5C 109.144,93.2865 110.644,93.6198 112,94.5C 112.464,93.9056 112.631,93.2389 112.5,92.5 Z"/></g>
<g><path style="opacity:1" fill="#8e8e8e" d="M 109.5,86.5 C 110.833,86.5 112.167,86.5 113.5,86.5C 114.167,90.5 114.833,90.5 115.5,86.5C 118.026,86.9191 120.359,87.0858 122.5,87C 121.366,88.016 121.699,88.6827 123.5,89C 122.167,89.6667 122.167,90.3333 123.5,91C 123,91.1667 122.5,91.3333 122,91.5C 119.484,90.2272 116.984,90.2272 114.5,91.5C 113.18,89.7299 111.68,89.3966 110,90.5C 109.51,89.2068 109.343,87.8734 109.5,86.5 Z"/></g>
<g><path style="opacity:1" fill="#3fa145" d="M 144.5,68.5 C 147.542,66.9799 150.208,67.6466 152.5,70.5C 155.198,75.7759 156.198,81.4426 155.5,87.5C 155.5,89.1667 155.5,90.8333 155.5,92.5C 154.428,102.032 154.261,111.699 155,121.5C 153.339,126.326 150.173,129.659 145.5,131.5C 144.5,131.167 143.833,130.5 143.5,129.5C 146.389,129.001 147.056,127.501 145.5,125C 148.436,120.851 150.603,116.351 152,111.5C 154.56,97.6139 153.894,83.9472 150,70.5C 148.556,68.8446 146.722,68.178 144.5,68.5 Z"/></g>
<g><path style="opacity:1" fill="#269845" d="M 155.5,92.5 C 155.334,98.8421 155.5,105.175 156,111.5C 158.253,118.011 159.92,124.677 161,131.5C 161.5,132.667 162.333,133.5 163.5,134C 165.81,134.497 168.143,134.663 170.5,134.5C 171.5,134.5 172.5,134.5 173.5,134.5C 171.5,135.167 169.5,135.833 167.5,136.5C 161.134,137.675 154.8,139.008 148.5,140.5C 143.9,139.924 139.734,140.924 136,143.5C 134.5,143.333 133.667,142.5 133.5,141C 135.879,137.508 138.879,134.841 142.5,133C 140.323,131.814 139.323,129.981 139.5,127.5C 142.479,131.432 145.479,135.432 148.5,139.5C 148.833,139.167 149.167,138.833 149.5,138.5C 148.139,136.15 146.806,133.816 145.5,131.5C 150.173,129.659 153.339,126.326 155,121.5C 154.261,111.699 154.428,102.032 155.5,92.5 Z"/></g>
<g><path style="opacity:1" fill="#056738" d="M 117.5,131.5 C 117.414,132.496 117.748,133.329 118.5,134C 107.485,134.832 96.4849,134.666 85.5,133.5C 84.218,131.821 83.218,129.987 82.5,128C 76.4495,127.279 70.4495,126.279 64.5,125C 63.1667,124.333 63.1667,123.667 64.5,123C 89.4189,121.972 114.419,121.472 139.5,121.5C 139.5,122.833 139.5,124.167 139.5,125.5C 130.203,125.916 120.869,126.083 111.5,126C 112.623,127.044 113.956,127.71 115.5,128C 112.806,130.552 113.473,131.719 117.5,131.5 Z"/></g>
<g><path style="opacity:1" fill="#2f9b46" d="M 57.5,51.5 C 58.552,51.3505 59.552,51.5172 60.5,52C 57.5375,56.0788 55.8708,60.5788 55.5,65.5C 52.8127,65.3359 50.146,65.5026 47.5,66C 49.0581,66.21 50.3915,66.71 51.5,67.5C 50.2921,68.2341 48.9587,68.5674 47.5,68.5C 47.1667,70.5 46.8333,72.5 46.5,74.5C 45.5,74.5 44.5,74.5 43.5,74.5C 44.8767,86.7788 45.71,99.1121 46,111.5C 46.2189,112.938 46.7189,114.271 47.5,115.5C 48.7362,114.754 50.0695,114.421 51.5,114.5C 51.8404,118.703 53.1737,122.536 55.5,126C 52.5434,128.184 52.8767,129.351 56.5,129.5C 56.3601,127.876 57.0267,126.71 58.5,126C 56.9837,124.103 56.317,121.936 56.5,119.5C 56.8333,119.5 57.1667,119.5 57.5,119.5C 57.5569,120.609 57.8902,121.609 58.5,122.5C 59.4756,123.815 60.4756,125.148 61.5,126.5C 58.4715,129.859 55.4715,133.192 52.5,136.5C 53.0016,137.521 53.6683,137.688 54.5,137C 55.7332,135.333 57.0665,133.833 58.5,132.5C 58.8821,135.899 60.5488,138.566 63.5,140.5C 63.2907,141.086 62.9574,141.586 62.5,142C 58.0957,142.258 53.7624,141.758 49.5,140.5C 47.901,140.768 46.5676,140.434 45.5,139.5C 46.9778,139.762 48.3112,139.429 49.5,138.5C 47.1065,137.651 44.7731,136.651 42.5,135.5C 41.3192,133.865 41.3192,132.198 42.5,130.5C 41.689,129.784 41.0223,128.95 40.5,128C 41.8141,125.869 42.9807,123.703 44,121.5C 44.8236,112.657 44.6569,103.99 43.5,95.5C 43.3222,87.9454 41.9889,80.6121 39.5,73.5C 38.669,68.7436 37.3356,64.2436 35.5,60C 35.9574,59.586 36.2907,59.086 36.5,58.5C 43.6702,56.6596 50.6702,54.3263 57.5,51.5 Z"/></g>
<g><path style="opacity:1" fill="#228d42" d="M 43.5,95.5 C 44.6569,103.99 44.8236,112.657 44,121.5C 42.9807,123.703 41.8141,125.869 40.5,128C 41.0223,128.95 41.689,129.784 42.5,130.5C 41.3192,132.198 41.3192,133.865 42.5,135.5C 44.7731,136.651 47.1065,137.651 49.5,138.5C 48.3112,139.429 46.9778,139.762 45.5,139.5C 44.8333,139.5 44.1667,139.5 43.5,139.5C 42.8333,139.5 42.1667,139.5 41.5,139.5C 36.7745,138.043 32.1078,136.376 27.5,134.5C 30.8333,134.5 34.1667,134.5 37.5,134.5C 37.4847,130.44 37.9847,126.44 39,122.5C 41.0096,119.14 42.1763,115.473 42.5,111.5C 43.4881,106.36 43.8214,101.026 43.5,95.5 Z"/></g>
<g><path style="opacity:1" fill="#e3d336" d="M 27.5,134.5 C 32.1078,136.376 36.7745,138.043 41.5,139.5C 34.8756,137.837 28.209,137.504 21.5,138.5C 25.0459,140.153 24.7126,141.487 20.5,142.5C 16.1074,142.543 15.7741,142.043 19.5,141C 19.0338,139.701 19.0338,138.201 19.5,136.5C 14.2634,137.797 8.93009,138.464 3.5,138.5C 11.0855,135.458 19.0855,134.125 27.5,134.5 Z"/></g>
<g><path style="opacity:1" fill="#d6d337" d="M 167.5,136.5 C 165.088,139.178 162.421,141.512 159.5,143.5C 158.5,143.5 157.5,143.5 156.5,143.5C 156.166,146.491 157.166,148.824 159.5,150.5C 159.44,151.043 159.107,151.376 158.5,151.5C 155.78,150.14 153.114,148.807 150.5,147.5C 151.568,146.566 152.901,146.232 154.5,146.5C 154.297,144.61 154.963,143.11 156.5,142C 156,141.833 155.5,141.667 155,141.5C 148.658,143.53 142.158,144.863 135.5,145.5C 139.969,144.205 144.302,142.538 148.5,140.5C 154.8,139.008 161.134,137.675 167.5,136.5 Z"/></g>
<g><path style="opacity:1" fill="#efd11b" d="M 167.5,136.5 C 177.301,136.33 186.968,137.33 196.5,139.5C 195.006,143.277 194.339,147.277 194.5,151.5C 194.5,151.833 194.5,152.167 194.5,152.5C 190.115,160.094 188.115,168.427 188.5,177.5C 187.167,177.5 185.833,177.5 184.5,177.5C 184.5,174.167 184.5,170.833 184.5,167.5C 182.712,167.215 181.045,167.548 179.5,168.5C 179.232,171.961 178.232,174.961 176.5,177.5C 176.353,172.786 176.686,168.119 177.5,163.5C 176.167,163.5 174.833,163.5 173.5,163.5C 173.67,162.178 173.337,161.011 172.5,160C 169.74,159.326 167.073,158.493 164.5,157.5C 164.804,156.85 165.137,156.183 165.5,155.5C 164.143,153.435 162.81,151.435 161.5,149.5C 160.833,147.5 160.167,145.5 159.5,143.5C 162.421,141.512 165.088,139.178 167.5,136.5 Z"/></g>
<g><path style="opacity:1" fill="#eed31d" d="M 20.5,142.5 C 21.4524,148.075 21.7857,153.741 21.5,159.5C 20.1667,159.5 18.8333,159.5 17.5,159.5C 17.2148,161.288 17.5481,162.955 18.5,164.5C 22.3168,163.798 26.1502,163.131 30,162.5C 34.7057,163.586 38.8724,165.586 42.5,168.5C 40.4352,168.483 38.4352,168.15 36.5,167.5C 33.9333,166.525 31.2666,165.858 28.5,165.5C 26.7354,164.539 24.7354,164.205 22.5,164.5C 22.5,169.5 22.5,174.5 22.5,179.5C 26.4809,178.979 30.4809,178.646 34.5,178.5C 34.5,181.833 34.5,185.167 34.5,188.5C 31.6814,189.484 28.8481,190.484 26,191.5C 23.2393,190.582 20.4059,189.916 17.5,189.5C 16.5,189.167 15.8333,188.5 15.5,187.5C 13.7355,183.631 12.2355,179.631 11,175.5C 8.62582,167.305 6.62582,158.972 5,150.5C 4.61742,149.944 4.11742,149.611 3.5,149.5C 3.66108,146.472 2.99441,143.639 1.5,141C 1.74325,140.098 2.07658,139.265 2.5,138.5C 2.83333,138.5 3.16667,138.5 3.5,138.5C 8.93009,138.464 14.2634,137.797 19.5,136.5C 19.0338,138.201 19.0338,139.701 19.5,141C 15.7741,142.043 16.1074,142.543 20.5,142.5 Z"/></g>
<g><path style="opacity:1" fill="#f0e123" d="M 41.5,139.5 C 42.1667,139.5 42.8333,139.5 43.5,139.5C 44.7358,141.043 46.4024,142.043 48.5,142.5C 49.7445,143.955 49.5778,145.289 48,146.5C 45,145.167 42,143.833 39,142.5C 38.304,145.478 37.804,148.478 37.5,151.5C 37.7709,153.38 37.1042,154.713 35.5,155.5C 34.1888,157.56 34.1888,159.726 35.5,162C 38.8273,162.61 42.1606,163.11 45.5,163.5C 45.1849,160.789 45.8516,158.456 47.5,156.5C 47.5,155.5 47.5,154.5 47.5,153.5C 48.209,152.596 49.209,152.263 50.5,152.5C 50.1818,157.032 50.5151,161.366 51.5,165.5C 51.5,166.167 51.8333,166.5 52.5,166.5C 56.9511,167.982 60.1177,166.316 62,161.5C 63.3186,163.25 63.8186,165.25 63.5,167.5C 63.427,169.027 64.0937,170.027 65.5,170.5C 66.2341,171.708 66.5674,173.041 66.5,174.5C 62.8019,174.448 59.1352,174.114 55.5,173.5C 51.97,170.095 47.6367,168.429 42.5,168.5C 38.8724,165.586 34.7057,163.586 30,162.5C 26.1502,163.131 22.3168,163.798 18.5,164.5C 17.5481,162.955 17.2148,161.288 17.5,159.5C 18.8333,159.5 20.1667,159.5 21.5,159.5C 21.7857,153.741 21.4524,148.075 20.5,142.5C 24.7126,141.487 25.0459,140.153 21.5,138.5C 28.209,137.504 34.8756,137.837 41.5,139.5 Z"/></g>
<g><path style="opacity:0.761" fill="#ebdb7c" d="M 2.5,138.5 C 2.07658,139.265 1.74325,140.098 1.5,141C 2.99441,143.639 3.66108,146.472 3.5,149.5C 2.35858,146.746 1.02525,144.079 -0.5,141.5C -0.5,140.833 -0.5,140.167 -0.5,139.5C 0.391047,138.89 1.39105,138.557 2.5,138.5 Z"/></g>
<g><path style="opacity:1" fill="#4da241" d="M 65.5,127.5 C 63.5152,129.424 61.5152,131.424 59.5,133.5C 63.8306,134.104 67.4973,135.937 70.5,139C 76.5012,140.13 82.3345,141.63 88,143.5C 93.1186,142.848 98.2852,142.848 103.5,143.5C 110.155,142.557 116.822,141.724 123.5,141C 128.223,137.835 132.889,134.669 137.5,131.5C 138.756,129.384 138.09,128.051 135.5,127.5C 136.705,126.314 138.039,126.314 139.5,127.5C 139.323,129.981 140.323,131.814 142.5,133C 138.879,134.841 135.879,137.508 133.5,141C 133.667,142.5 134.5,143.333 136,143.5C 139.734,140.924 143.9,139.924 148.5,140.5C 144.302,142.538 139.969,144.205 135.5,145.5C 127.623,147.927 119.623,150.094 111.5,152C 102.5,152.667 93.5,152.667 84.5,152C 78.3185,149.572 71.9851,147.739 65.5,146.5C 60.3014,144.29 54.9681,142.29 49.5,140.5C 53.7624,141.758 58.0957,142.258 62.5,142C 62.9574,141.586 63.2907,141.086 63.5,140.5C 60.5488,138.566 58.8821,135.899 58.5,132.5C 59.9599,130.537 61.6266,128.704 63.5,127C 64.4368,126.308 65.1034,126.475 65.5,127.5 Z"/></g>
<g><path style="opacity:1" fill="#65af4a" d="M 65.5,127.5 C 71.2559,128.138 76.9226,129.305 82.5,131C 80.5405,131.931 78.5405,132.764 76.5,133.5C 75.2888,134.274 75.2888,135.107 76.5,136C 91.8333,136.667 107.167,136.667 122.5,136C 123.167,135.667 123.833,135.333 124.5,135C 122.423,133.295 120.09,132.128 117.5,131.5C 123.085,128.895 129.085,127.562 135.5,127.5C 138.09,128.051 138.756,129.384 137.5,131.5C 132.889,134.669 128.223,137.835 123.5,141C 116.822,141.724 110.155,142.557 103.5,143.5C 98.2852,142.848 93.1186,142.848 88,143.5C 82.3345,141.63 76.5012,140.13 70.5,139C 67.4973,135.937 63.8306,134.104 59.5,133.5C 61.5152,131.424 63.5152,129.424 65.5,127.5 Z"/></g>
<g><path style="opacity:1" fill="#4f4b23" d="M 159.5,143.5 C 160.167,145.5 160.833,147.5 161.5,149.5C 160.075,147.969 159.409,148.302 159.5,150.5C 157.166,148.824 156.166,146.491 156.5,143.5C 157.5,143.5 158.5,143.5 159.5,143.5 Z"/></g>
<g><path style="opacity:1" fill="#e6d059" d="M 173.5,134.5 C 182.539,134.375 191.206,136.041 199.5,139.5C 199.5,140.167 199.5,140.833 199.5,141.5C 197.449,144.658 195.783,147.992 194.5,151.5C 194.339,147.277 195.006,143.277 196.5,139.5C 186.968,137.33 177.301,136.33 167.5,136.5C 169.5,135.833 171.5,135.167 173.5,134.5 Z"/></g>
<g><path style="opacity:1" fill="#e3da3b" d="M 43.5,139.5 C 44.1667,139.5 44.8333,139.5 45.5,139.5C 46.5676,140.434 47.901,140.768 49.5,140.5C 54.9681,142.29 60.3014,144.29 65.5,146.5C 63.9519,146.821 63.2852,147.821 63.5,149.5C 60.5696,148.422 57.5696,147.922 54.5,148C 55.6975,151.366 57.0309,154.532 58.5,157.5C 57.8783,158.627 57.045,159.627 56,160.5C 55.8214,157.447 55.3214,154.447 54.5,151.5C 53.8333,151.167 53.1667,150.833 52.5,150.5C 51.5059,155.456 51.1725,160.456 51.5,165.5C 50.5151,161.366 50.1818,157.032 50.5,152.5C 49.209,152.263 48.209,152.596 47.5,153.5C 46.0413,153.567 44.7079,153.234 43.5,152.5C 42.596,151.791 42.2627,150.791 42.5,149.5C 44.8333,150.167 47.1667,150.833 49.5,151.5C 49.719,150.325 49.3857,149.325 48.5,148.5C 46.1716,147.783 44.0049,146.783 42,145.5C 40.0574,147.136 38.5574,149.136 37.5,151.5C 37.804,148.478 38.304,145.478 39,142.5C 42,143.833 45,145.167 48,146.5C 49.5778,145.289 49.7445,143.955 48.5,142.5C 46.4024,142.043 44.7358,141.043 43.5,139.5 Z"/></g>
<g><path style="opacity:1" fill="#4a4b32" d="M 150.5,147.5 C 153.114,148.807 155.78,150.14 158.5,151.5C 159.107,151.376 159.44,151.043 159.5,150.5C 159.409,148.302 160.075,147.969 161.5,149.5C 162.81,151.435 164.143,153.435 165.5,155.5C 165.137,156.183 164.804,156.85 164.5,157.5C 160.103,156.717 156.27,154.717 153,151.5C 153.566,154.46 154.733,157.293 156.5,160C 156.257,160.902 155.923,161.735 155.5,162.5C 154.833,162.5 154.167,162.5 153.5,162.5C 151.476,157.792 149.476,153.126 147.5,148.5C 148.391,147.89 149.391,147.557 150.5,147.5 Z"/></g>
<g><path style="opacity:1" fill="#f0e326" d="M 150.5,147.5 C 149.391,147.557 148.391,147.89 147.5,148.5C 146.833,149.167 146.167,149.833 145.5,150.5C 141.988,150.924 138.655,151.924 135.5,153.5C 131.958,153.187 128.625,153.521 125.5,154.5C 123.801,154.34 122.134,154.506 120.5,155C 123,155.833 123.167,157 121,158.5C 120.329,157.748 119.496,157.414 118.5,157.5C 117.791,156.596 116.791,156.263 115.5,156.5C 115.5,155.167 115.5,153.833 115.5,152.5C 122.634,151.255 129.301,148.922 135.5,145.5C 142.158,144.863 148.658,143.53 155,141.5C 155.5,141.667 156,141.833 156.5,142C 154.963,143.11 154.297,144.61 154.5,146.5C 152.901,146.232 151.568,146.566 150.5,147.5 Z"/></g>
<g><path style="opacity:1" fill="#e3d128" d="M 135.5,145.5 C 129.301,148.922 122.634,151.255 115.5,152.5C 115.5,153.833 115.5,155.167 115.5,156.5C 116.791,156.263 117.791,156.596 118.5,157.5C 115.941,157.198 113.607,157.532 111.5,158.5C 110.209,158.263 109.209,158.596 108.5,159.5C 107.833,159.5 107.167,159.5 106.5,159.5C 104.512,159.173 102.512,158.84 100.5,158.5C 98.4434,158.436 96.7767,159.102 95.5,160.5C 95.1667,160.5 94.8333,160.5 94.5,160.5C 93.5,160.5 92.5,160.5 91.5,160.5C 91.5,159.5 91.5,158.5 91.5,157.5C 88.8333,157.5 86.1667,157.5 83.5,157.5C 82.1667,157.5 80.8333,157.5 79.5,157.5C 74.6532,154.901 69.3199,153.568 63.5,153.5C 61.2254,154.111 59.5588,155.445 58.5,157.5C 57.0309,154.532 55.6975,151.366 54.5,148C 57.5696,147.922 60.5696,148.422 63.5,149.5C 63.2852,147.821 63.9519,146.821 65.5,146.5C 71.9851,147.739 78.3185,149.572 84.5,152C 93.5,152.667 102.5,152.667 111.5,152C 119.623,150.094 127.623,147.927 135.5,145.5 Z"/></g>
<g><path style="opacity:1" fill="#51581e" d="M 43.5,152.5 C 44.7079,153.234 46.0413,153.567 47.5,153.5C 47.5,154.5 47.5,155.5 47.5,156.5C 45.139,156.326 42.8056,155.993 40.5,155.5C 41.9002,154.9 42.9002,153.9 43.5,152.5 Z"/></g>
<g><path style="opacity:1" fill="#4a4c2c" d="M 43.5,152.5 C 42.9002,153.9 41.9002,154.9 40.5,155.5C 40.3505,156.552 40.5172,157.552 41,158.5C 42.4866,159.155 43.6533,160.155 44.5,161.5C 44.1667,161.833 43.8333,162.167 43.5,162.5C 40.9044,161.518 38.2377,160.851 35.5,160.5C 35.5,158.833 35.5,157.167 35.5,155.5C 37.1042,154.713 37.7709,153.38 37.5,151.5C 38.5574,149.136 40.0574,147.136 42,145.5C 44.0049,146.783 46.1716,147.783 48.5,148.5C 49.3857,149.325 49.719,150.325 49.5,151.5C 47.1667,150.833 44.8333,150.167 42.5,149.5C 42.2627,150.791 42.596,151.791 43.5,152.5 Z"/></g>
<g><path style="opacity:1" fill="#ded74d" d="M 147.5,148.5 C 149.476,153.126 151.476,157.792 153.5,162.5C 151.952,162.821 151.285,163.821 151.5,165.5C 150.5,165.5 149.5,165.5 148.5,165.5C 148.918,164.778 149.584,164.278 150.5,164C 148.862,162.199 147.028,162.032 145,163.5C 143.5,163.333 142.667,162.5 142.5,161C 143.619,159.124 145.286,158.291 147.5,158.5C 147.5,157.5 147.5,156.5 147.5,155.5C 145.323,155.586 143.323,156.253 141.5,157.5C 141.167,157 140.833,156.5 140.5,156C 142.484,154.411 144.151,152.578 145.5,150.5C 146.167,149.833 146.833,149.167 147.5,148.5 Z"/></g>
<g><path style="opacity:1" fill="#525032" d="M 58.5,157.5 C 59.5588,155.445 61.2254,154.111 63.5,153.5C 63.6107,154.117 63.944,154.617 64.5,155C 62.724,158.441 60.5574,161.608 58,164.5C 56.5557,166.155 54.7224,166.822 52.5,166.5C 51.8333,166.5 51.5,166.167 51.5,165.5C 51.1725,160.456 51.5059,155.456 52.5,150.5C 53.1667,150.833 53.8333,151.167 54.5,151.5C 55.3214,154.447 55.8214,157.447 56,160.5C 57.045,159.627 57.8783,158.627 58.5,157.5 Z"/></g>
<g><path style="opacity:1" fill="#cbc045" d="M 125.5,154.5 C 128.167,154.5 130.833,154.5 133.5,154.5C 133.737,155.791 133.404,156.791 132.5,157.5C 132.209,156.351 131.376,155.684 130,155.5C 127.863,156.077 125.696,156.41 123.5,156.5C 123.5,157.5 123.5,158.5 123.5,159.5C 121.612,161.988 120.945,164.988 121.5,168.5C 120.522,168.189 119.855,167.522 119.5,166.5C 122.009,159.079 119.343,156.412 111.5,158.5C 113.607,157.532 115.941,157.198 118.5,157.5C 119.496,157.414 120.329,157.748 121,158.5C 123.167,157 123,155.833 120.5,155C 122.134,154.506 123.801,154.34 125.5,154.5 Z"/></g>
<g><path style="opacity:1" fill="#e3df4d" d="M 125.5,154.5 C 128.625,153.521 131.958,153.187 135.5,153.5C 137.112,157.058 138.445,160.725 139.5,164.5C 138.288,163.77 137.288,162.77 136.5,161.5C 135.818,162.243 135.151,162.909 134.5,163.5C 134.5,162.5 134.5,161.5 134.5,160.5C 132.585,160.216 130.919,160.549 129.5,161.5C 127.952,161.179 127.285,160.179 127.5,158.5C 129.216,158.371 130.883,158.038 132.5,157.5C 133.404,156.791 133.737,155.791 133.5,154.5C 130.833,154.5 128.167,154.5 125.5,154.5 Z"/></g>
<g><path style="opacity:1" fill="#4b4b2b" d="M 145.5,150.5 C 144.151,152.578 142.484,154.411 140.5,156C 140.833,156.5 141.167,157 141.5,157.5C 143.323,156.253 145.323,155.586 147.5,155.5C 147.5,156.5 147.5,157.5 147.5,158.5C 145.286,158.291 143.619,159.124 142.5,161C 142.667,162.5 143.5,163.333 145,163.5C 147.028,162.032 148.862,162.199 150.5,164C 149.584,164.278 148.918,164.778 148.5,165.5C 145.888,166.371 143.221,167.037 140.5,167.5C 140.737,166.209 140.404,165.209 139.5,164.5C 138.445,160.725 137.112,157.058 135.5,153.5C 138.655,151.924 141.988,150.924 145.5,150.5 Z"/></g>
<g><path style="opacity:1" fill="#534e1e" d="M 106.5,159.5 C 106.657,160.873 106.49,162.207 106,163.5C 103.772,161.887 101.272,161.22 98.5,161.5C 97.791,160.596 96.791,160.263 95.5,160.5C 96.7767,159.102 98.4434,158.436 100.5,158.5C 102.512,158.84 104.512,159.173 106.5,159.5 Z"/></g>
<g><path style="opacity:1" fill="#d8d447" d="M 35.5,155.5 C 35.5,157.167 35.5,158.833 35.5,160.5C 38.2377,160.851 40.9044,161.518 43.5,162.5C 43.8333,162.167 44.1667,161.833 44.5,161.5C 43.6533,160.155 42.4866,159.155 41,158.5C 40.5172,157.552 40.3505,156.552 40.5,155.5C 42.8056,155.993 45.139,156.326 47.5,156.5C 45.8516,158.456 45.1849,160.789 45.5,163.5C 42.1606,163.11 38.8273,162.61 35.5,162C 34.1888,159.726 34.1888,157.56 35.5,155.5 Z"/></g>
<g><path style="opacity:1" fill="#616312" d="M 129.5,161.5 C 130.919,160.549 132.585,160.216 134.5,160.5C 134.5,161.5 134.5,162.5 134.5,163.5C 133.833,163.5 133.167,163.5 132.5,163.5C 132.179,161.952 131.179,161.285 129.5,161.5 Z"/></g>
<g><path style="opacity:1" fill="#ded137" d="M 164.5,157.5 C 167.073,158.493 169.74,159.326 172.5,160C 173.337,161.011 173.67,162.178 173.5,163.5C 174.833,163.5 176.167,163.5 177.5,163.5C 176.686,168.119 176.353,172.786 176.5,177.5C 176.672,178.492 176.338,179.158 175.5,179.5C 174.57,175.6 174.237,171.6 174.5,167.5C 175.043,167.44 175.376,167.107 175.5,166.5C 173.5,166.167 171.5,165.833 169.5,165.5C 167.048,165.539 165.048,166.206 163.5,167.5C 163.167,167.5 162.833,167.5 162.5,167.5C 157.28,168.45 152.613,170.45 148.5,173.5C 147.167,173.5 145.833,173.5 144.5,173.5C 144.953,172.542 145.619,171.708 146.5,171C 151.937,169.707 156.603,167.207 160.5,163.5C 163.976,164.978 167.309,164.812 170.5,163C 170.043,162.586 169.709,162.086 169.5,161.5C 165.463,160.491 161.463,159.491 157.5,158.5C 157.843,160.483 157.176,161.817 155.5,162.5C 155.923,161.735 156.257,160.902 156.5,160C 154.733,157.293 153.566,154.46 153,151.5C 156.27,154.717 160.103,156.717 164.5,157.5 Z"/></g>
<g><path style="opacity:1" fill="#d7c541" d="M 63.5,153.5 C 69.3199,153.568 74.6532,154.901 79.5,157.5C 78.746,162.463 78.4126,167.463 78.5,172.5C 79.5,172.5 80.5,172.5 81.5,172.5C 81.5,170.833 81.5,169.167 81.5,167.5C 84.142,167.488 85.4754,168.821 85.5,171.5C 83.5107,172.481 81.5107,173.481 79.5,174.5C 78.5581,174.392 77.7247,174.059 77,173.5C 76.5783,170.764 76.5783,168.098 77,165.5C 74.9538,165.451 72.7871,165.785 70.5,166.5C 71.6016,167.176 72.6016,167.842 73.5,168.5C 71.7085,168.634 70.0418,168.301 68.5,167.5C 68.5,166.5 68.5,165.5 68.5,164.5C 70.8333,164.5 73.1667,164.5 75.5,164.5C 75.7148,162.821 75.0481,161.821 73.5,161.5C 72.1667,161.5 70.8333,161.5 69.5,161.5C 69.5,160.5 69.5,159.5 69.5,158.5C 71.861,158.674 74.1944,159.007 76.5,159.5C 76.5,158.5 76.5,157.5 76.5,156.5C 73.5071,155.865 70.5071,155.699 67.5,156C 66.536,157.725 65.8693,159.559 65.5,161.5C 64.8333,163.5 64.1667,165.5 63.5,167.5C 63.8186,165.25 63.3186,163.25 62,161.5C 60.1177,166.316 56.9511,167.982 52.5,166.5C 54.7224,166.822 56.5557,166.155 58,164.5C 60.5574,161.608 62.724,158.441 64.5,155C 63.944,154.617 63.6107,154.117 63.5,153.5 Z"/></g>
<g><path style="opacity:1" fill="#4c492e" d="M 79.5,157.5 C 80.8333,157.5 82.1667,157.5 83.5,157.5C 90.3932,158.312 92.0599,161.812 88.5,168C 91.6055,173.193 90.6055,174.36 85.5,171.5C 85.4754,168.821 84.142,167.488 81.5,167.5C 81.5,169.167 81.5,170.833 81.5,172.5C 80.5,172.5 79.5,172.5 78.5,172.5C 78.4126,167.463 78.746,162.463 79.5,157.5 Z"/></g>
<g><path style="opacity:1" fill="#e0cb4b" d="M 83.5,161.5 C 84.5,161.5 85.5,161.5 86.5,161.5C 86.5,162.5 86.5,163.5 86.5,164.5C 85.5,164.5 84.5,164.5 83.5,164.5C 83.5,163.5 83.5,162.5 83.5,161.5 Z"/></g>
<g><path style="opacity:1" fill="#474731" d="M 111.5,158.5 C 119.343,156.412 122.009,159.079 119.5,166.5C 119.855,167.522 120.522,168.189 121.5,168.5C 121.5,169.167 121.833,169.5 122.5,169.5C 124.137,171.124 123.803,172.124 121.5,172.5C 118.913,171.256 116.58,169.589 114.5,167.5C 113.534,169.396 113.201,171.396 113.5,173.5C 112.5,173.5 111.5,173.5 110.5,173.5C 109.527,171.052 109.194,168.385 109.5,165.5C 109.483,163.435 109.15,161.435 108.5,159.5C 109.209,158.596 110.209,158.263 111.5,158.5 Z"/></g>
<g><path style="opacity:1" fill="#b9b550" d="M 112.5,160.5 C 116.138,159.737 117.638,161.07 117,164.5C 113.331,166.009 111.831,164.676 112.5,160.5 Z"/></g>
<g><path style="opacity:1" fill="#ebd566" d="M 194.5,152.5 C 193.245,161.129 191.245,169.462 188.5,177.5C 188.115,168.427 190.115,160.094 194.5,152.5 Z"/></g>
<g><path style="opacity:1" fill="#6d6621" d="M 73.5,161.5 C 75.0481,161.821 75.7148,162.821 75.5,164.5C 73.1667,164.5 70.8333,164.5 68.5,164.5C 68.5,165.5 68.5,166.5 68.5,167.5C 67.5655,166.432 67.2322,165.099 67.5,163.5C 70.0821,163.975 72.0821,163.308 73.5,161.5 Z"/></g>
<g><path style="opacity:1" fill="#dcc947" d="M 106.5,159.5 C 107.167,159.5 107.833,159.5 108.5,159.5C 109.15,161.435 109.483,163.435 109.5,165.5C 107.972,166.802 106.972,168.469 106.5,170.5C 106.5,168.833 106.5,167.167 106.5,165.5C 104.167,165.5 101.833,165.5 99.5,165.5C 99.5,166.5 99.5,167.5 99.5,168.5C 100.5,168.5 101.5,168.5 102.5,168.5C 102.5,169.5 102.5,170.5 102.5,171.5C 97.0115,171.496 95.1781,168.829 97,163.5C 97.7172,162.956 98.2172,162.289 98.5,161.5C 101.272,161.22 103.772,161.887 106,163.5C 106.49,162.207 106.657,160.873 106.5,159.5 Z"/></g>
<g><path style="opacity:1" fill="#484733" d="M 73.5,161.5 C 72.0821,163.308 70.0821,163.975 67.5,163.5C 67.2322,165.099 67.5655,166.432 68.5,167.5C 68.2942,169.549 67.4609,169.883 66,168.5C 65.5034,166.19 65.3367,163.857 65.5,161.5C 65.8693,159.559 66.536,157.725 67.5,156C 70.5071,155.699 73.5071,155.865 76.5,156.5C 76.5,157.5 76.5,158.5 76.5,159.5C 74.1944,159.007 71.861,158.674 69.5,158.5C 69.5,159.5 69.5,160.5 69.5,161.5C 70.8333,161.5 72.1667,161.5 73.5,161.5 Z"/></g>
<g><path style="opacity:1" fill="#598a3b" d="M 174.5,167.5 C 170.994,166.502 167.328,166.502 163.5,167.5C 165.048,166.206 167.048,165.539 169.5,165.5C 171.5,165.833 173.5,166.167 175.5,166.5C 175.376,167.107 175.043,167.44 174.5,167.5 Z"/></g>
<g><path style="opacity:1" fill="#ece330" d="M 123.5,159.5 C 123.5,160.167 123.5,160.833 123.5,161.5C 123.511,163.547 123.844,165.547 124.5,167.5C 124.253,168.713 123.586,169.38 122.5,169.5C 121.833,169.5 121.5,169.167 121.5,168.5C 120.945,164.988 121.612,161.988 123.5,159.5 Z"/></g>
<g><path style="opacity:1" fill="#48482b" d="M 132.5,157.5 C 130.883,158.038 129.216,158.371 127.5,158.5C 127.285,160.179 127.952,161.179 129.5,161.5C 131.179,161.285 132.179,161.952 132.5,163.5C 131.5,163.5 130.5,163.5 129.5,163.5C 129.5,164.833 129.5,166.167 129.5,167.5C 131.924,167.192 134.257,167.526 136.5,168.5C 133.251,169.812 129.918,170.812 126.5,171.5C 126.101,167.884 125.101,164.55 123.5,161.5C 123.5,160.833 123.5,160.167 123.5,159.5C 123.5,158.5 123.5,157.5 123.5,156.5C 125.696,156.41 127.863,156.077 130,155.5C 131.376,155.684 132.209,156.351 132.5,157.5 Z"/></g>
<g><path style="opacity:1" fill="#544e29" d="M 94.5,160.5 C 94.8333,160.5 95.1667,160.5 95.5,160.5C 96.791,160.263 97.791,160.596 98.5,161.5C 98.2172,162.289 97.7172,162.956 97,163.5C 95.1781,168.829 97.0115,171.496 102.5,171.5C 102.5,170.5 102.5,169.5 102.5,168.5C 101.5,168.5 100.5,168.5 99.5,168.5C 99.5,167.5 99.5,166.5 99.5,165.5C 101.833,165.5 104.167,165.5 106.5,165.5C 106.5,167.167 106.5,168.833 106.5,170.5C 106.5,171.5 106.5,172.5 106.5,173.5C 102.8,174.758 99.1337,174.758 95.5,173.5C 91.9877,169.422 91.6544,165.088 94.5,160.5 Z"/></g>
<g><path style="opacity:1" fill="#575219" d="M 65.5,161.5 C 65.3367,163.857 65.5034,166.19 66,168.5C 67.4609,169.883 68.2942,169.549 68.5,167.5C 70.0418,168.301 71.7085,168.634 73.5,168.5C 74.8333,169.5 74.8333,170.5 73.5,171.5C 70.7938,171.425 68.1272,171.092 65.5,170.5C 64.0937,170.027 63.427,169.027 63.5,167.5C 64.1667,165.5 64.8333,163.5 65.5,161.5 Z"/></g>
<g><path style="opacity:1" fill="#ddcd52" d="M 42.5,168.5 C 47.6367,168.429 51.97,170.095 55.5,173.5C 53.8333,173.5 52.1667,173.5 50.5,173.5C 48.062,171.465 45.3953,169.799 42.5,168.5 Z"/></g>
<g><path style="opacity:1" fill="#d7bf3a" d="M 83.5,157.5 C 86.1667,157.5 88.8333,157.5 91.5,157.5C 91.5,158.5 91.5,159.5 91.5,160.5C 92.5,160.5 93.5,160.5 94.5,160.5C 91.6544,165.088 91.9877,169.422 95.5,173.5C 94.5041,173.586 93.6708,173.252 93,172.5C 91.2365,173.944 89.2365,174.944 87,175.5C 86.2086,174.255 85.7086,172.922 85.5,171.5C 90.6055,174.36 91.6055,173.193 88.5,168C 92.0599,161.812 90.3932,158.312 83.5,157.5 Z"/></g>
<g><path style="opacity:1" fill="#d4c94b" d="M 123.5,161.5 C 125.101,164.55 126.101,167.884 126.5,171.5C 124.971,172.347 123.304,173.014 121.5,173.5C 117.55,172.797 113.883,172.797 110.5,173.5C 111.5,173.5 112.5,173.5 113.5,173.5C 113.201,171.396 113.534,169.396 114.5,167.5C 116.58,169.589 118.913,171.256 121.5,172.5C 123.803,172.124 124.137,171.124 122.5,169.5C 123.586,169.38 124.253,168.713 124.5,167.5C 123.844,165.547 123.511,163.547 123.5,161.5 Z"/></g>
<g><path style="opacity:1" fill="#338a61" d="M 174.5,167.5 C 173.834,170.358 173.167,173.358 172.5,176.5C 169.897,175.438 167.23,175.272 164.5,176C 163.748,176.671 163.414,177.504 163.5,178.5C 163.167,179.5 162.5,180.167 161.5,180.5C 161.467,176.131 161.8,171.798 162.5,167.5C 162.833,167.5 163.167,167.5 163.5,167.5C 167.328,166.502 170.994,166.502 174.5,167.5 Z"/></g>
<g><path style="opacity:1" fill="#e6d464" d="M 3.5,149.5 C 4.11742,149.611 4.61742,149.944 5,150.5C 6.62582,158.972 8.62582,167.305 11,175.5C 12.2355,179.631 13.7355,183.631 15.5,187.5C 12.3097,183.786 10.1431,179.453 9,174.5C 7.22791,166.138 5.39458,157.805 3.5,149.5 Z"/></g>
<g><path style="opacity:1" fill="#358758" d="M 28.5,165.5 C 31.2666,165.858 33.9333,166.525 36.5,167.5C 37.0802,171.81 37.4135,176.143 37.5,180.5C 33.9118,176.069 29.5785,175.403 24.5,178.5C 23.5078,174.217 23.1744,169.884 23.5,165.5C 25.1667,165.5 26.8333,165.5 28.5,165.5 Z"/></g>
<g><path style="opacity:1" fill="#d1cc35" d="M 65.5,170.5 C 68.1272,171.092 70.7938,171.425 73.5,171.5C 71.7354,172.461 69.7354,172.795 67.5,172.5C 67.238,173.978 67.5713,175.311 68.5,176.5C 72.682,178.022 77.0153,178.855 81.5,179C 82.7588,179.923 84.0921,180.757 85.5,181.5C 93.1378,182.497 100.804,182.831 108.5,182.5C 110.167,182.5 111.833,182.5 113.5,182.5C 113.158,183.338 112.492,183.672 111.5,183.5C 102.494,183.666 93.4938,183.5 84.5,183C 80.4695,181.827 76.4695,180.66 72.5,179.5C 66.8375,177.153 61.1708,175.153 55.5,173.5C 59.1352,174.114 62.8019,174.448 66.5,174.5C 66.5674,173.041 66.2341,171.708 65.5,170.5 Z"/></g>
<g><path style="opacity:1" fill="#4a8936" d="M 174.5,167.5 C 174.237,171.6 174.57,175.6 175.5,179.5C 172.91,178.748 170.41,177.748 168,176.5C 166.167,176.519 164.667,177.185 163.5,178.5C 163.414,177.504 163.748,176.671 164.5,176C 167.23,175.272 169.897,175.438 172.5,176.5C 173.167,173.358 173.834,170.358 174.5,167.5 Z"/></g>
<g><path style="opacity:1" fill="#c9d143" d="M 28.5,165.5 C 26.8333,165.5 25.1667,165.5 23.5,165.5C 23.1744,169.884 23.5078,174.217 24.5,178.5C 29.5785,175.403 33.9118,176.069 37.5,180.5C 37.5,181.5 37.5,182.5 37.5,183.5C 37.5674,184.959 37.2341,186.292 36.5,187.5C 35.8333,187.833 35.1667,188.167 34.5,188.5C 34.5,185.167 34.5,181.833 34.5,178.5C 30.4809,178.646 26.4809,178.979 22.5,179.5C 22.5,174.5 22.5,169.5 22.5,164.5C 24.7354,164.205 26.7354,164.539 28.5,165.5 Z"/></g>
<g><path style="opacity:1" fill="#edcc1b" d="M 85.5,171.5 C 85.7086,172.922 86.2086,174.255 87,175.5C 89.2365,174.944 91.2365,173.944 93,172.5C 93.6708,173.252 94.5041,173.586 95.5,173.5C 99.1337,174.758 102.8,174.758 106.5,173.5C 105.942,174.79 104.942,175.623 103.5,176C 105.878,176.511 108.212,177.178 110.5,178C 106.728,178.81 106.061,180.31 108.5,182.5C 100.804,182.831 93.1378,182.497 85.5,181.5C 84.0921,180.757 82.7588,179.923 81.5,179C 77.0153,178.855 72.682,178.022 68.5,176.5C 67.5713,175.311 67.238,173.978 67.5,172.5C 69.7354,172.795 71.7354,172.461 73.5,171.5C 74.8333,170.5 74.8333,169.5 73.5,168.5C 72.6016,167.842 71.6016,167.176 70.5,166.5C 72.7871,165.785 74.9538,165.451 77,165.5C 76.5783,168.098 76.5783,170.764 77,173.5C 77.7247,174.059 78.5581,174.392 79.5,174.5C 81.5107,173.481 83.5107,172.481 85.5,171.5 Z"/></g>
<g><path style="opacity:1" fill="#ecde2a" d="M 144.5,173.5 C 142.694,174.024 141.028,174.691 139.5,175.5C 132.454,176.59 125.787,178.59 119.5,181.5C 117.435,181.517 115.435,181.85 113.5,182.5C 111.833,182.5 110.167,182.5 108.5,182.5C 106.061,180.31 106.728,178.81 110.5,178C 108.212,177.178 105.878,176.511 103.5,176C 104.942,175.623 105.942,174.79 106.5,173.5C 106.5,172.5 106.5,171.5 106.5,170.5C 106.972,168.469 107.972,166.802 109.5,165.5C 109.194,168.385 109.527,171.052 110.5,173.5C 113.883,172.797 117.55,172.797 121.5,173.5C 123.304,173.014 124.971,172.347 126.5,171.5C 129.918,170.812 133.251,169.812 136.5,168.5C 134.257,167.526 131.924,167.192 129.5,167.5C 129.5,166.167 129.5,164.833 129.5,163.5C 130.5,163.5 131.5,163.5 132.5,163.5C 133.167,163.5 133.833,163.5 134.5,163.5C 135.151,162.909 135.818,162.243 136.5,161.5C 137.288,162.77 138.288,163.77 139.5,164.5C 140.404,165.209 140.737,166.209 140.5,167.5C 143.221,167.037 145.888,166.371 148.5,165.5C 149.5,165.5 150.5,165.5 151.5,165.5C 151.285,163.821 151.952,162.821 153.5,162.5C 154.167,162.5 154.833,162.5 155.5,162.5C 157.176,161.817 157.843,160.483 157.5,158.5C 161.463,159.491 165.463,160.491 169.5,161.5C 169.709,162.086 170.043,162.586 170.5,163C 167.309,164.812 163.976,164.978 160.5,163.5C 156.603,167.207 151.937,169.707 146.5,171C 145.619,171.708 144.953,172.542 144.5,173.5 Z"/></g>
<g><path style="opacity:1" fill="#48822a" d="M 139.5,175.5 C 135.619,177.469 131.619,179.136 127.5,180.5C 124.904,181.265 122.237,181.599 119.5,181.5C 125.787,178.59 132.454,176.59 139.5,175.5 Z"/></g>
<g><path style="opacity:1" fill="#ecd542" d="M 184.5,177.5 C 185.833,177.5 187.167,177.5 188.5,177.5C 187.571,186.715 182.571,192.048 173.5,193.5C 171.201,193.401 169.201,192.734 167.5,191.5C 169.5,191.5 171.5,191.5 173.5,191.5C 173.108,188.278 173.608,185.278 175,182.5C 175.87,183.108 176.37,183.941 176.5,185C 175.767,186.766 175.433,188.599 175.5,190.5C 177.981,190.677 179.814,189.677 181,187.5C 182.871,184.994 184.038,181.66 184.5,177.5 Z"/></g>
<g><path style="opacity:1" fill="#398625" d="M 72.5,179.5 C 76.4695,180.66 80.4695,181.827 84.5,183C 93.4938,183.5 102.494,183.666 111.5,183.5C 109.052,184.473 106.385,184.806 103.5,184.5C 102.5,184.5 101.5,184.5 100.5,184.5C 93.4648,184.674 86.4648,184.341 79.5,183.5C 78.0813,182.549 76.4147,182.216 74.5,182.5C 74.2178,181.222 73.5511,180.222 72.5,179.5 Z"/></g>
<g><path style="opacity:1" fill="#eedd26" d="M 184.5,177.5 C 184.038,181.66 182.871,184.994 181,187.5C 179.814,189.677 177.981,190.677 175.5,190.5C 175.433,188.599 175.767,186.766 176.5,185C 176.37,183.941 175.87,183.108 175,182.5C 173.608,185.278 173.108,188.278 173.5,191.5C 171.5,191.5 169.5,191.5 167.5,191.5C 165.668,190.752 164.001,189.752 162.5,188.5C 161.85,186.565 161.517,184.565 161.5,182.5C 161.5,181.833 161.5,181.167 161.5,180.5C 162.5,180.167 163.167,179.5 163.5,178.5C 164.667,177.185 166.167,176.519 168,176.5C 170.41,177.748 172.91,178.748 175.5,179.5C 176.338,179.158 176.672,178.492 176.5,177.5C 178.232,174.961 179.232,171.961 179.5,168.5C 181.045,167.548 182.712,167.215 184.5,167.5C 184.5,170.833 184.5,174.167 184.5,177.5 Z"/></g>
<g><path style="opacity:1" fill="#328463" d="M 49.5,174.5 C 48.3548,176.712 47.3548,179.045 46.5,181.5C 45.8333,180.833 45.1667,180.167 44.5,179.5C 43.5481,181.045 43.2148,182.712 43.5,184.5C 45.1667,184.5 46.8333,184.5 48.5,184.5C 48.5,186.5 48.5,188.5 48.5,190.5C 42.413,189.869 41.413,191.536 45.5,195.5C 46.324,193.252 47.324,193.086 48.5,195C 46.2929,198.18 44.1263,198.014 42,194.5C 38.9669,198.032 35.4669,201.032 31.5,203.5C 30.8333,204.5 30.1667,205.5 29.5,206.5C 30.6016,207.176 31.6016,207.842 32.5,208.5C 31.027,209.74 29.3604,210.74 27.5,211.5C 26.7515,207.929 27.5849,204.595 30,201.5C 34.015,197.318 38.1817,193.318 42.5,189.5C 40.3691,188.831 38.3691,188.165 36.5,187.5C 37.2341,186.292 37.5674,184.959 37.5,183.5C 40.953,179.706 44.953,176.706 49.5,174.5 Z"/></g>
<g><path style="opacity:1" fill="#e5d358" d="M 34.5,188.5 C 29.1175,194.603 23.4509,194.936 17.5,189.5C 20.4059,189.916 23.2393,190.582 26,191.5C 28.8481,190.484 31.6814,189.484 34.5,188.5 Z"/></g>
<g><path style="opacity:1" fill="#27875f" d="M 144.5,173.5 C 145.833,173.5 147.167,173.5 148.5,173.5C 153.127,176.135 157.46,179.135 161.5,182.5C 161.517,184.565 161.85,186.565 162.5,188.5C 160.606,188.586 158.606,188.919 156.5,189.5C 158.521,190.855 160.188,192.521 161.5,194.5C 163.051,197.563 165.218,200.229 168,202.5C 168.748,204.84 168.248,206.84 166.5,208.5C 166.5,209.5 166.5,210.5 166.5,211.5C 164.399,213.056 162.399,214.89 160.5,217C 161.167,218.667 161.833,220.333 162.5,222C 161.691,223.784 161.024,225.617 160.5,227.5C 161.583,229.875 161.583,232.208 160.5,234.5C 156.705,232.212 152.705,231.879 148.5,233.5C 148.891,232.109 148.058,231.109 146,230.5C 145.667,230.833 145.333,231.167 145,231.5C 144.517,230.552 144.351,229.552 144.5,228.5C 142.088,228.244 140.421,229.244 139.5,231.5C 137.889,230.68 137.222,229.346 137.5,227.5C 136.022,227.762 134.689,227.429 133.5,226.5C 135.833,225.833 138.167,225.167 140.5,224.5C 138.604,223.534 136.604,223.201 134.5,223.5C 133.996,219.665 132.996,219.665 131.5,223.5C 130.914,223.291 130.414,222.957 130,222.5C 128.532,223.989 127.032,225.323 125.5,226.5C 125.943,219.902 127.277,213.569 129.5,207.5C 128.833,202.167 128.167,196.833 127.5,191.5C 131.608,194.598 132.608,198.598 130.5,203.5C 131.769,215.214 132.603,214.881 133,202.5C 134.587,201.273 135.921,201.606 137,203.5C 138.234,211.101 140.4,218.434 143.5,225.5C 143.833,225.167 144.167,224.833 144.5,224.5C 141.583,219.786 140.583,214.786 141.5,209.5C 142.429,210.689 142.762,212.022 142.5,213.5C 144.124,213.36 145.29,214.027 146,215.5C 146.542,221.239 148.209,226.572 151,231.5C 150.617,228.189 149.783,224.855 148.5,221.5C 148.833,220.833 149.167,220.167 149.5,219.5C 150.216,221.482 151.383,223.149 153,224.5C 153.54,222.865 153.04,221.532 151.5,220.5C 153.021,220.12 154.687,219.954 156.5,220C 154.112,218.139 151.446,216.806 148.5,216C 146.46,213.815 145.126,211.315 144.5,208.5C 146.819,209.167 149.153,209.334 151.5,209C 148.223,206.685 144.556,205.351 140.5,205C 139.128,203.758 138.128,202.258 137.5,200.5C 142.361,199.579 147.028,199.579 151.5,200.5C 145.908,197.358 139.908,195.525 133.5,195C 129.675,192.768 129.675,190.768 133.5,189C 137.53,188.674 141.53,188.674 145.5,189C 139.865,186.068 133.865,184.901 127.5,185.5C 127.5,183.833 127.5,182.167 127.5,180.5C 131.619,179.136 135.619,177.469 139.5,175.5C 141.028,174.691 142.694,174.024 144.5,173.5 Z"/></g>
<g><path style="opacity:0.996" fill="#46866e" d="M 161.5,194.5 C 167.104,198.101 170.771,203.101 172.5,209.5C 172.167,210.167 171.833,210.833 171.5,211.5C 169.64,210.74 167.973,209.74 166.5,208.5C 168.248,206.84 168.748,204.84 168,202.5C 165.218,200.229 163.051,197.563 161.5,194.5 Z"/></g>
<g><path style="opacity:1" fill="#037136" d="M 100.5,184.5 C 101.5,184.5 102.5,184.5 103.5,184.5C 103.414,185.496 103.748,186.329 104.5,187C 108.428,188.092 110.761,190.592 111.5,194.5C 108.626,193.937 105.96,192.937 103.5,191.5C 103.337,193.857 103.503,196.19 104,198.5C 110.064,202.263 109.897,203.93 103.5,203.5C 105.2,210.572 107.2,217.572 109.5,224.5C 109.333,225.833 109.167,227.167 109,228.5C 108,224.833 107,221.167 106,217.5C 103.667,213.387 102.5,213.887 102.5,219C 103.045,222.189 104.045,225.189 105.5,228C 105.333,228.833 105.167,229.667 105,230.5C 104.581,229.328 103.915,228.328 103,227.5C 102.08,230.101 101.413,232.768 101,235.5C 100.536,234.906 100.369,234.239 100.5,233.5C 100.662,231.473 100.495,229.473 100,227.5C 98.3324,230.21 97.499,230.043 97.5,227C 100.524,223.335 101.19,219.168 99.5,214.5C 96.8475,216.561 95.0142,219.228 94,222.5C 93.1072,223.711 92.2739,223.711 91.5,222.5C 93.188,217.774 95.8546,213.774 99.5,210.5C 101.54,200.923 99.54,199.923 93.5,207.5C 92.4173,206.635 92.2506,205.635 93,204.5C 94.7788,201.215 97.2788,198.882 100.5,197.5C 100.5,195.833 100.5,194.167 100.5,192.5C 96.0497,192.142 92.5497,193.808 90,197.5C 89.4795,195.711 89.8129,194.044 91,192.5C 94.0645,189.593 97.2312,186.926 100.5,184.5 Z"/></g>
<g><path style="opacity:1" fill="#076a3d" d="M 127.5,185.5 C 133.865,184.901 139.865,186.068 145.5,189C 141.53,188.674 137.53,188.674 133.5,189C 129.675,190.768 129.675,192.768 133.5,195C 139.908,195.525 145.908,197.358 151.5,200.5C 147.028,199.579 142.361,199.579 137.5,200.5C 138.128,202.258 139.128,203.758 140.5,205C 144.556,205.351 148.223,206.685 151.5,209C 149.153,209.334 146.819,209.167 144.5,208.5C 145.126,211.315 146.46,213.815 148.5,216C 151.446,216.806 154.112,218.139 156.5,220C 154.687,219.954 153.021,220.12 151.5,220.5C 153.04,221.532 153.54,222.865 153,224.5C 151.383,223.149 150.216,221.482 149.5,219.5C 149.167,220.167 148.833,220.833 148.5,221.5C 149.783,224.855 150.617,228.189 151,231.5C 148.209,226.572 146.542,221.239 146,215.5C 145.29,214.027 144.124,213.36 142.5,213.5C 142.762,212.022 142.429,210.689 141.5,209.5C 140.583,214.786 141.583,219.786 144.5,224.5C 144.167,224.833 143.833,225.167 143.5,225.5C 140.4,218.434 138.234,211.101 137,203.5C 135.921,201.606 134.587,201.273 133,202.5C 132.603,214.881 131.769,215.214 130.5,203.5C 132.608,198.598 131.608,194.598 127.5,191.5C 126.763,189.695 125.763,188.029 124.5,186.5C 125.325,185.614 126.325,185.281 127.5,185.5 Z"/></g>
<g><path style="opacity:1" fill="#278860" d="M 50.5,173.5 C 52.1667,173.5 53.8333,173.5 55.5,173.5C 61.1708,175.153 66.8375,177.153 72.5,179.5C 73.5511,180.222 74.2178,181.222 74.5,182.5C 73.7326,183.172 73.0659,184.005 72.5,185C 64.5894,184.494 57.2561,186.161 50.5,190C 55.797,189.562 61.1303,189.562 66.5,190C 67.1667,190.333 67.8333,190.667 68.5,191C 66.8934,192.049 66.2267,193.549 66.5,195.5C 59.1069,194.439 52.4402,196.105 46.5,200.5C 45.1667,201.167 45.1667,201.833 46.5,202.5C 51.1864,199.812 56.1864,198.979 61.5,200C 60.5,201.667 59.5,203.333 58.5,205C 52.3879,205.356 47.0546,207.523 42.5,211.5C 41.1667,212.167 41.1667,212.833 42.5,213.5C 46.2977,210.29 50.631,208.79 55.5,209C 53.8333,211.333 52.1667,213.667 50.5,216C 47.4005,216.939 44.4005,218.105 41.5,219.5C 38.7655,218.016 37.2655,219.016 37,222.5C 35.977,221.4 35.477,220.067 35.5,218.5C 37.2062,215.122 36.7062,212.122 34,209.5C 33.6174,210.056 33.1174,210.389 32.5,210.5C 32.5,209.833 32.5,209.167 32.5,208.5C 31.6016,207.842 30.6016,207.176 29.5,206.5C 30.1667,205.5 30.8333,204.5 31.5,203.5C 35.4669,201.032 38.9669,198.032 42,194.5C 44.1263,198.014 46.2929,198.18 48.5,195C 47.324,193.086 46.324,193.252 45.5,195.5C 41.413,191.536 42.413,189.869 48.5,190.5C 48.5,188.5 48.5,186.5 48.5,184.5C 46.8333,184.5 45.1667,184.5 43.5,184.5C 43.2148,182.712 43.5481,181.045 44.5,179.5C 45.1667,180.167 45.8333,180.833 46.5,181.5C 47.3548,179.045 48.3548,176.712 49.5,174.5C 49.5,173.833 49.8333,173.5 50.5,173.5 Z"/></g>
<g><path style="opacity:1" fill="#076b3e" d="M 74.5,182.5 C 76.4147,182.216 78.0813,182.549 79.5,183.5C 78.2744,187.62 76.2744,191.287 73.5,194.5C 72.7321,193.737 72.2321,192.737 72,191.5C 70.3333,192.5 69,193.833 68,195.5C 69.1485,203.346 68.3151,211.012 65.5,218.5C 65.1667,218 64.8333,217.5 64.5,217C 66.2142,211.983 66.8808,206.817 66.5,201.5C 63.7081,201.452 61.8747,202.785 61,205.5C 61.2571,211.967 59.7571,217.967 56.5,223.5C 56.1667,223 55.8333,222.5 55.5,222C 57.1438,218.641 57.6438,215.141 57,211.5C 53.2632,214.592 51.5965,218.592 52,223.5C 50.7533,226.329 49.2533,228.995 47.5,231.5C 47.1667,231.333 46.8333,231.167 46.5,231C 48.4882,228.156 49.8216,224.989 50.5,221.5C 50.1667,220.833 49.8333,220.167 49.5,219.5C 47.4978,223.504 44.9978,227.17 42,230.5C 42.989,226.867 44.8224,223.534 47.5,220.5C 47.1667,220.167 46.8333,219.833 46.5,219.5C 44.1056,221.068 41.6056,222.401 39,223.5C 38.3333,222.833 38.3333,222.167 39,221.5C 39.9947,220.934 40.828,220.267 41.5,219.5C 44.4005,218.105 47.4005,216.939 50.5,216C 52.1667,213.667 53.8333,211.333 55.5,209C 50.631,208.79 46.2977,210.29 42.5,213.5C 41.1667,212.833 41.1667,212.167 42.5,211.5C 47.0546,207.523 52.3879,205.356 58.5,205C 59.5,203.333 60.5,201.667 61.5,200C 56.1864,198.979 51.1864,199.812 46.5,202.5C 45.1667,201.833 45.1667,201.167 46.5,200.5C 52.4402,196.105 59.1069,194.439 66.5,195.5C 66.2267,193.549 66.8934,192.049 68.5,191C 67.8333,190.667 67.1667,190.333 66.5,190C 61.1303,189.562 55.797,189.562 50.5,190C 57.2561,186.161 64.5894,184.494 72.5,185C 73.0659,184.005 73.7326,183.172 74.5,182.5 Z"/></g>
<g><path style="opacity:1" fill="#0d9044" d="M 127.5,180.5 C 127.5,182.167 127.5,183.833 127.5,185.5C 126.325,185.281 125.325,185.614 124.5,186.5C 125.763,188.029 126.763,189.695 127.5,191.5C 128.167,196.833 128.833,202.167 129.5,207.5C 127.833,207.5 126.167,207.5 124.5,207.5C 124.529,213.21 124.029,218.877 123,224.5C 120.993,225.669 118.827,226.335 116.5,226.5C 116.838,231 115.338,234.667 112,237.5C 111.667,236.833 111.333,236.167 111,235.5C 110.667,237.167 110.333,238.833 110,240.5C 109.333,239.833 108.667,239.167 108,238.5C 107.798,240.256 107.298,241.922 106.5,243.5C 105.833,242.833 105.167,242.167 104.5,241.5C 103.548,243.045 103.215,244.712 103.5,246.5C 100.873,245.908 98.2062,245.575 95.5,245.5C 94.2838,242.93 93.6171,240.43 93.5,238C 96.4772,236.855 98.1439,234.688 98.5,231.5C 99.1818,232.243 99.8485,232.909 100.5,233.5C 100.369,234.239 100.536,234.906 101,235.5C 101.413,232.768 102.08,230.101 103,227.5C 103.915,228.328 104.581,229.328 105,230.5C 105.167,229.667 105.333,228.833 105.5,228C 104.045,225.189 103.045,222.189 102.5,219C 102.5,213.887 103.667,213.387 106,217.5C 107,221.167 108,224.833 109,228.5C 109.167,227.167 109.333,225.833 109.5,224.5C 107.2,217.572 105.2,210.572 103.5,203.5C 109.897,203.93 110.064,202.263 104,198.5C 103.503,196.19 103.337,193.857 103.5,191.5C 105.96,192.937 108.626,193.937 111.5,194.5C 110.761,190.592 108.428,188.092 104.5,187C 103.748,186.329 103.414,185.496 103.5,184.5C 106.385,184.806 109.052,184.473 111.5,183.5C 112.492,183.672 113.158,183.338 113.5,182.5C 115.435,181.85 117.435,181.517 119.5,181.5C 122.237,181.599 124.904,181.265 127.5,180.5 Z"/></g>
<g><path style="opacity:1" fill="#0f9145" d="M 79.5,183.5 C 86.4648,184.341 93.4648,184.674 100.5,184.5C 97.2312,186.926 94.0645,189.593 91,192.5C 89.8129,194.044 89.4795,195.711 90,197.5C 92.5497,193.808 96.0497,192.142 100.5,192.5C 100.5,194.167 100.5,195.833 100.5,197.5C 97.2788,198.882 94.7788,201.215 93,204.5C 92.2506,205.635 92.4173,206.635 93.5,207.5C 99.54,199.923 101.54,200.923 99.5,210.5C 95.8546,213.774 93.188,217.774 91.5,222.5C 92.2739,223.711 93.1072,223.711 94,222.5C 95.0142,219.228 96.8475,216.561 99.5,214.5C 101.19,219.168 100.524,223.335 97.5,227C 97.499,230.043 98.3324,230.21 100,227.5C 100.495,229.473 100.662,231.473 100.5,233.5C 99.8485,232.909 99.1818,232.243 98.5,231.5C 98.1439,234.688 96.4772,236.855 93.5,238C 93.6171,240.43 94.2838,242.93 95.5,245.5C 89.2604,240.27 84.5937,233.936 81.5,226.5C 80.2652,226.721 79.2652,227.388 78.5,228.5C 77.2813,220.112 77.6146,211.778 79.5,203.5C 78.5,203.5 77.5,203.5 76.5,203.5C 76.5,204.5 76.5,205.5 76.5,206.5C 75.5,206.5 74.5,206.5 73.5,206.5C 73.5,202.5 73.5,198.5 73.5,194.5C 76.2744,191.287 78.2744,187.62 79.5,183.5 Z"/></g>
<g><path style="opacity:1" fill="#2a8861" d="M 73.5,194.5 C 73.5,198.5 73.5,202.5 73.5,206.5C 74.5,206.5 75.5,206.5 76.5,206.5C 76.5,205.5 76.5,204.5 76.5,203.5C 77.5,203.5 78.5,203.5 79.5,203.5C 77.6146,211.778 77.2813,220.112 78.5,228.5C 79.2652,227.388 80.2652,226.721 81.5,226.5C 79.377,234.358 77.2103,234.358 75,226.5C 72.3535,230.314 69.1868,233.647 65.5,236.5C 64.5853,235.672 63.9186,234.672 63.5,233.5C 64.9884,231.114 64.6551,230.448 62.5,231.5C 58.7634,232.199 55.0967,233.199 51.5,234.5C 49.7722,234.41 48.1056,234.077 46.5,233.5C 45.2888,234.274 45.2888,235.107 46.5,236C 42.4724,236.392 38.4724,236.892 34.5,237.5C 35.0894,233.029 34.4228,229.029 32.5,225.5C 31.1667,220.5 31.1667,215.5 32.5,210.5C 33.1174,210.389 33.6174,210.056 34,209.5C 36.7062,212.122 37.2062,215.122 35.5,218.5C 35.477,220.067 35.977,221.4 37,222.5C 37.2655,219.016 38.7655,218.016 41.5,219.5C 40.828,220.267 39.9947,220.934 39,221.5C 38.3333,222.167 38.3333,222.833 39,223.5C 41.6056,222.401 44.1056,221.068 46.5,219.5C 46.8333,219.833 47.1667,220.167 47.5,220.5C 44.8224,223.534 42.989,226.867 42,230.5C 44.9978,227.17 47.4978,223.504 49.5,219.5C 49.8333,220.167 50.1667,220.833 50.5,221.5C 49.8216,224.989 48.4882,228.156 46.5,231C 46.8333,231.167 47.1667,231.333 47.5,231.5C 49.2533,228.995 50.7533,226.329 52,223.5C 51.5965,218.592 53.2632,214.592 57,211.5C 57.6438,215.141 57.1438,218.641 55.5,222C 55.8333,222.5 56.1667,223 56.5,223.5C 59.7571,217.967 61.2571,211.967 61,205.5C 61.8747,202.785 63.7081,201.452 66.5,201.5C 66.8808,206.817 66.2142,211.983 64.5,217C 64.8333,217.5 65.1667,218 65.5,218.5C 68.3151,211.012 69.1485,203.346 68,195.5C 69,193.833 70.3333,192.5 72,191.5C 72.2321,192.737 72.7321,193.737 73.5,194.5 Z"/></g>
<g><path style="opacity:1" fill="#348b68" d="M 166.5,211.5 C 167.111,213.913 167.445,216.413 167.5,219C 166.785,225.835 166.119,232.668 165.5,239.5C 154.75,239.646 144.75,236.979 135.5,231.5C 135.251,232.582 135.085,233.915 135,235.5C 134.586,235.957 134.086,236.291 133.5,236.5C 130.478,234.312 127.978,231.645 126,228.5C 124.285,232.466 122.785,232.466 121.5,228.5C 122.841,228.645 124.174,227.979 125.5,226.5C 127.032,225.323 128.532,223.989 130,222.5C 130.414,222.957 130.914,223.291 131.5,223.5C 132.996,219.665 133.996,219.665 134.5,223.5C 136.604,223.201 138.604,223.534 140.5,224.5C 138.167,225.167 135.833,225.833 133.5,226.5C 134.689,227.429 136.022,227.762 137.5,227.5C 137.222,229.346 137.889,230.68 139.5,231.5C 140.421,229.244 142.088,228.244 144.5,228.5C 144.351,229.552 144.517,230.552 145,231.5C 145.333,231.167 145.667,230.833 146,230.5C 148.058,231.109 148.891,232.109 148.5,233.5C 152.705,231.879 156.705,232.212 160.5,234.5C 161.583,232.208 161.583,229.875 160.5,227.5C 161.024,225.617 161.691,223.784 162.5,222C 161.833,220.333 161.167,218.667 160.5,217C 162.399,214.89 164.399,213.056 166.5,211.5 Z"/></g>
<g><path style="opacity:1" fill="#42896c" d="M 32.5,225.5 C 34.4228,229.029 35.0894,233.029 34.5,237.5C 38.4724,236.892 42.4724,236.392 46.5,236C 45.2888,235.107 45.2888,234.274 46.5,233.5C 48.1056,234.077 49.7722,234.41 51.5,234.5C 55.0967,233.199 58.7634,232.199 62.5,231.5C 59.4536,234.357 55.7869,236.19 51.5,237C 45.5312,238.103 39.5312,238.936 33.5,239.5C 33.1667,234.833 32.8333,230.167 32.5,225.5 Z"/></g>
<g><path style="opacity:1" fill="#288d52" d="M 129.5,207.5 C 127.277,213.569 125.943,219.902 125.5,226.5C 124.174,227.979 122.841,228.645 121.5,228.5C 120.883,228.389 120.383,228.056 120,227.5C 118.444,232.28 116.111,236.613 113,240.5C 108.64,244.032 104.473,247.699 100.5,251.5C 100.167,251.5 99.8333,251.5 99.5,251.5C 98.5589,249.228 97.2255,247.228 95.5,245.5C 98.2062,245.575 100.873,245.908 103.5,246.5C 103.215,244.712 103.548,243.045 104.5,241.5C 105.167,242.167 105.833,242.833 106.5,243.5C 107.298,241.922 107.798,240.256 108,238.5C 108.667,239.167 109.333,239.833 110,240.5C 110.333,238.833 110.667,237.167 111,235.5C 111.333,236.167 111.667,236.833 112,237.5C 115.338,234.667 116.838,231 116.5,226.5C 118.827,226.335 120.993,225.669 123,224.5C 124.029,218.877 124.529,213.21 124.5,207.5C 126.167,207.5 127.833,207.5 129.5,207.5 Z"/></g>
</svg>
